<?xml version="1.0" standalone="no"?>
<!DOCTYPE svg PUBLIC "-//W3C//DTD SVG 1.1//EN" "http://www.w3.org/Graphics/SVG/1.1/DTD/svg11.dtd" >
<svg xmlns="http://www.w3.org/2000/svg" xmlns:xlink="http://www.w3.org/1999/xlink" version="1.1">
<metadata>
Created by FontForge 20170731 at Tue Dec  1 22:27:54 2020
 By Aleksey,,,
Copyright (C) 1996-2005, Hoefler &#38; Frere-Jones, Inc. www.typography.com
</metadata>
<defs>
<font id="MercuryDisplay-Semibold" horiz-adv-x="1024" >
  <font-face 
    font-family="Mercury Display Semibold"
    font-weight="700"
    font-stretch="normal"
    units-per-em="2048"
    panose-1="0 0 0 0 0 0 0 0 0 0"
    ascent="1638"
    descent="-410"
    x-height="924"
    cap-height="1305"
    bbox="-160 -530 1982 1843.6"
    underline-thickness="57"
    underline-position="-261"
    unicode-range="U+0005-00FF"
  />
<missing-glyph 
 />
    <glyph glyph-name=".notdef" 
 />
    <glyph glyph-name=".null" horiz-adv-x="0" 
 />
    <glyph glyph-name="nonmarkingreturn" horiz-adv-x="682" 
 />
    <glyph glyph-name="breve" horiz-adv-x="688" 
d="M344 1212q172 0 244 154l45 -14q-18 -138 -91 -216.5t-198 -78.5t-199.5 79t-89.5 216l45 14q33 -73 95.5 -113.5t148.5 -40.5z" />
    <glyph glyph-name="dotaccent" horiz-adv-x="409" 
d="M332 1245q0 -54 -38.5 -94.5t-94.5 -40.5q-53 0 -87 35t-34 88q0 54 38.5 94.5t94.5 40.5q54 0 87.5 -34.5t33.5 -88.5z" />
    <glyph glyph-name="ring" horiz-adv-x="530" 
d="M463 1219q0 -75 -57 -134t-148 -59q-89 0 -140.5 56.5t-51.5 136.5q0 75 56 131.5t146 56.5t142.5 -54t52.5 -134zM348 1219q0 143 -88 143q-82 0 -82 -145q0 -69 22.5 -106.5t63.5 -37.5q84 0 84 146z" />
    <glyph glyph-name="hungarumlaut" unicode="&#xa;" horiz-adv-x="669" 
d="M332 1298q-13 -19 -33.5 -42t-49.5 -51.5t-51 -50t-61 -58t-57 -54.5l-29 17q10 29 31 94.5t32.5 99.5t28.5 76.5t31 67.5q24 42 63.5 56.5t75.5 -7.5q35 -23 41 -65t-22 -83zM618 1294q-16 -22 -48 -54.5t-60 -58t-78.5 -71t-75.5 -68.5l-26 19q95 273 137 338
q25 40 65 54t74 -9q35 -25 38 -67t-26 -83z" />
    <glyph glyph-name="ogonek" horiz-adv-x="550" 
d="M438 68q-141 -111 -206.5 -191t-65.5 -172q0 -66 38.5 -102.5t106.5 -36.5q29 0 56.5 10.5t42.5 24.5l18 -19q-25 -51 -77.5 -81.5t-119.5 -30.5q-98 0 -157.5 59t-59.5 147q0 111 102 211.5t304 204.5z" />
    <glyph glyph-name="caron" horiz-adv-x="632" 
d="M317 1266l246 178l27 -23l-262 -368h-37l-250 368l29 23z" />
    <glyph glyph-name="dotlessi" unicode="&#xd;" horiz-adv-x="573" 
d="M188 72v696l-127 92v21l338 80l9 -7v-882l129 -43v-29h-484v29z" />
    <glyph glyph-name="fraction" horiz-adv-x="1097" 
d="M1059 1270l-481 -666l-472 -674l-67 50l481 667l471 674z" />
    <glyph glyph-name="fi" horiz-adv-x="1212" 
d="M432 817v-745l133 -43v-29h-481v29l129 43v745h-184v35l184 74v73q0 278 199 424q57 42 134.5 68.5t158.5 26.5q77 0 134.5 -17.5t88.5 -46.5t46 -60.5t15 -64.5q0 -54 -33.5 -87.5t-87.5 -33.5q-69 0 -116.5 63.5t-51.5 180.5q-138 -24 -203 -123.5t-65 -296.5v-112h434
l172 41l9 -7v-882l129 -43v-29h-476v29l129 43v745h-397z" />
    <glyph glyph-name="fl" horiz-adv-x="1210" 
d="M1047 72l129 -43v-29h-484v29l137 43v745h-397v-745l133 -43v-29h-481v29l129 43v745h-184v35l184 74v73q0 278 199 424q57 42 134.5 68.5t158.5 26.5q113 0 186 -39l147 41l9 -7v-1441zM829 920v294q-55 18 -90 78.5t-39 159.5q-138 -24 -203 -123.5t-65 -296.5v-112
h397z" />
    <glyph glyph-name="Lslash" horiz-adv-x="1247" 
d="M1188 422l-51 -422h-1071v35l190 43v483l-141 -39l-21 80l162 43v582l-190 43v35h639v-35l-191 -43v-512l248 67l22 -77l-270 -72v-561l244 4q83 1 130 29.5t97 93.5l176 231z" />
    <glyph glyph-name="lslash" horiz-adv-x="630" 
d="M432 717v-645l129 -43v-29h-485v29l137 43v585q0 1 -37.5 -9t-75.5 -20l-37 -10l-20 76l170 45v570l-141 92v20l352 97l8 -7v-710l174 45l21 -76z" />
    <glyph glyph-name="Zcaron" horiz-adv-x="1298" 
d="M692 1647l246 178l27 -23l-263 -368h-36l-250 368l28 23zM1212 428l-43 -428h-1095l-8 20l817 1207l-324 -2q-82 -1 -130 -31.5t-122 -114.5l-143 -166l-29 13l41 379h1022l8 -21l-813 -1208l404 4q81 0 125 29t100 104l166 223z" />
    <glyph glyph-name="zcaron" horiz-adv-x="958" 
d="M477 1266l246 178l27 -23l-263 -368h-36l-250 368l28 23zM907 903l-585 -835h317l225 251l31 -12l-29 -307h-813l-12 23l586 833h-295l-209 -252l-29 12l21 308h780z" />
    <glyph glyph-name="space" unicode=" " horiz-adv-x="450" 
 />
    <glyph glyph-name="exclam" unicode="!" horiz-adv-x="546" 
d="M406 1180q0 -54 -17 -180t-45 -314.5t-43 -310.5h-59q-15 115 -43.5 309t-45 318t-16.5 178q0 74 34.5 114.5t98.5 40.5q67 0 101.5 -40.5t34.5 -114.5zM406 104q0 -55 -40 -95t-96 -40t-95.5 39.5t-39.5 95.5q0 55 39.5 94.5t95.5 39.5t96 -39.5t40 -94.5z" />
    <glyph glyph-name="quotedbl" unicode="&#x22;" horiz-adv-x="643" 
d="M598 1255q0 -24 -12 -51q-15 -28 -115 -184l-88 -129l-29 12l29 156q33 163 49 209q12 31 35 49t49 18q32 0 57 -22.5t25 -57.5zM334 1255q0 -24 -12 -51q-15 -28 -115 -184l-90 -129l-27 12l29 156q25 142 49 209q10 30 33.5 48.5t50.5 18.5q32 0 57 -22.5t25 -57.5z
" />
    <glyph glyph-name="numbersign" unicode="#" horiz-adv-x="1191" 
d="M1100 754h-250l-43 -142l-35 -131h264v-82h-286l-84 -307l-86 27l82 280h-263l-84 -307l-86 27l84 280h-221v82h244l47 156l33 117h-260v82h282l90 325l86 -26l-90 -299h262l93 325l84 -26l-89 -299h226v-82zM764 754h-264l-43 -142q-35 -131 -37 -131h266l47 156
q2 7 5.5 19.5t10.5 38t11.5 42.5t3.5 17z" />
    <glyph glyph-name="dollar" unicode="$" horiz-adv-x="1110" 
d="M989 383q0 -180 -125 -293t-321 -121l-13 -172l-75 8q14 164 14 166q-195 7 -338 66l-16 369l41 4q64 -151 146.5 -240.5t172.5 -118.5l39 467q-146 60 -197 90q-146 85 -172 221q-6 33 -6 70q0 167 124.5 275.5t301.5 111.5l10 146l78 -11q-12 -137 -12 -139
q160 -9 270 -63l15 -312l-41 -6q-120 236 -252 295l-35 -426q148 -61 192 -84q146 -80 184 -200q15 -47 15 -103zM561 1214q-95 11 -155 -40.5t-60 -149.5q0 -81 49.5 -132.5t139.5 -92.5q2 26 4.5 69.5t8 134.5t9.5 151.5t4 59.5zM784 260q0 45 -15.5 81.5t-46 64
t-64.5 47.5t-83 41l-28 -457q112 -3 174.5 57.5t62.5 165.5z" />
    <glyph glyph-name="percent" unicode="%" horiz-adv-x="1527" 
d="M741 942q0 -94 -40.5 -172.5t-121 -127t-186.5 -48.5q-156 0 -243 96t-87 248q0 145 96.5 245.5t254.5 100.5q155 0 241 -94.5t86 -247.5zM246 -16l489 659l486 668l61 -45l-489 -658l-488 -669zM1464 315q0 -94 -40.5 -172.5t-121 -127t-186.5 -48.5q-156 0 -243 96
t-87 248q0 145 96 245.5t255 100.5q155 0 241 -94.5t86 -247.5zM557 942q0 148 -41 222.5t-117 74.5q-72 0 -111.5 -76t-39.5 -227q0 -148 42.5 -222.5t115.5 -74.5q77 0 114 74t37 229zM971 309q0 -148 41.5 -222.5t115.5 -74.5q152 0 152 303q0 148 -41 222.5t-117 74.5
q-151 0 -151 -303z" />
    <glyph glyph-name="ampersand" unicode="&#x26;" horiz-adv-x="1411" 
d="M1393 711v-29l-129 -51l-277 -369q79 -101 139 -141.5t131 -40.5q51 0 95 6l6 -29q-118 -88 -252 -88q-160 0 -295 170q-90 -85 -171.5 -127.5t-190.5 -42.5q-166 0 -280 98.5t-114 247.5q0 120 76.5 212.5t194.5 146.5l59 28q-123 146 -123 277q0 134 105.5 220.5
t261.5 86.5q77 0 139.5 -23t100 -60.5t57.5 -82t20 -90.5q0 -77 -56.5 -147t-176.5 -140l-60 -34l289 -392l162 312l-117 57v25h406zM752 1042q0 85 -42 137t-110 52q-63 0 -101 -47.5t-38 -124.5q0 -50 21.5 -98t74.5 -121l68 -95q127 135 127 297zM780 174l-368 490
l-27 -27q-109 -109 -109 -250q0 -114 82 -187t215 -73q111 0 207 47z" />
    <glyph glyph-name="quotesingle" unicode="'" horiz-adv-x="378" 
d="M334 1255q0 -24 -12 -51q-15 -28 -115 -184l-90 -129l-27 12l29 156q25 142 49 209q10 30 33.5 48.5t50.5 18.5q32 0 57 -22.5t25 -57.5z" />
    <glyph glyph-name="parenleft" unicode="(" horiz-adv-x="720" 
d="M307 578q0 -319 124 -562t339 -338l-14 -38q-101 34 -195.5 93.5t-176.5 145.5t-143.5 190.5t-96.5 236t-35 272.5q0 176 53.5 334.5t145 276t206 202t242.5 127.5l14 -39q-143 -64 -248 -195.5t-160 -313t-55 -392.5z" />
    <glyph glyph-name="parenright" unicode=")" horiz-adv-x="722" 
d="M614 578q0 -176 -54 -334.5t-145.5 -276t-206 -201.5t-241.5 -126l-14 38q143 63 247.5 195t159 313.5t54.5 391.5q0 320 -123 562.5t-338 338.5l14 39q127 -43 241.5 -127.5t206 -202t145.5 -276t54 -334.5z" />
    <glyph glyph-name="asterisk" unicode="*" horiz-adv-x="696" 
d="M639 858l-12 -24q-57 -26 -119 8q-57 36 -127 121l-8 -7q41 -109 41 -170q0 -70 -52 -104h-28q-49 32 -49 104q0 66 39 170l-9 7q-74 -89 -129 -121q-58 -35 -114 -8l-13 24q3 59 64 94q56 34 168 52v10q-107 17 -168 51q-61 35 -64 94l13 25q56 27 114 -8
q60 -35 129 -121l9 6q-39 104 -39 170q0 70 49 104h28q52 -34 52 -104q0 -61 -41 -170l8 -6q66 82 127 121q62 35 117 8l14 -25q-7 -60 -66 -94q-61 -34 -167 -51v-10q110 -17 167 -52q59 -34 66 -94z" />
    <glyph glyph-name="plus" unicode="+" horiz-adv-x="1034" 
d="M950 575h-379v-382h-106v382h-381v105h381v377h106v-377h379v-105z" />
    <glyph glyph-name="comma" unicode="," horiz-adv-x="475" 
d="M391 51q0 -92 -64 -176.5t-204 -148.5l-21 26q155 133 185 244l-4 4l-37 -10q-12 -4 -35 -4q-47 0 -78 32t-31 80q0 56 40 97t96 41q71 0 112 -51t41 -134z" />
    <glyph glyph-name="hyphen" unicode="-" horiz-adv-x="675" 
d="M588 416h-498v141h498v-141z" />
    <glyph glyph-name="period" unicode="." horiz-adv-x="428" 
d="M350 102q0 -56 -39 -95.5t-96 -39.5q-55 0 -95 39.5t-40 95.5q0 55 39.5 94.5t95.5 39.5q57 0 96 -39t39 -95z" />
    <glyph glyph-name="slash" unicode="/" horiz-adv-x="759" 
d="M870 1485l-419 -957l-410 -960l-74 35l422 954l408 961z" />
    <glyph glyph-name="zero" unicode="0" horiz-adv-x="1159" 
d="M1087 627q0 -186 -60 -334t-178.5 -236t-277.5 -88q-126 0 -223 50.5t-157 140.5t-90.5 208t-30.5 259q0 187 59.5 335t178 236t278.5 88q125 0 222 -50.5t157.5 -140.5t91 -208.5t30.5 -259.5zM834 627q0 302 -78 451t-195 149q-40 0 -73.5 -16t-64.5 -57.5t-52.5 -108
t-34 -172.5t-12.5 -246t14.5 -246t39 -172.5t60.5 -108t74 -57.5t84 -16q102 0 170 149.5t68 450.5z" />
    <glyph glyph-name="one" unicode="1" horiz-adv-x="792" 
d="M522 113l221 -80v-33h-665v33l221 80v970l-223 97v24l436 68l10 -6v-1153z" />
    <glyph glyph-name="two" unicode="2" horiz-adv-x="1042" 
d="M649 848q0 116 -62.5 186t-170.5 70q-151 0 -295 -129l-19 22q65 134 174.5 211.5t235.5 77.5q120 0 207 -51.5t128.5 -135t41.5 -188.5q0 -304 -578 -704l4 -10h453l162 184l22 -6l-73 -375h-840l-10 41q266 206 415 379q205 238 205 428z" />
    <glyph glyph-name="three" unicode="3" horiz-adv-x="1001" 
d="M901 360q0 -170 -131 -280.5t-319 -110.5q-175 0 -282.5 62t-107.5 155q0 60 38.5 98t93.5 38q86 0 122 -68.5t15 -169.5q60 -51 143 -51q92 0 153.5 66t61.5 169q0 60 -21.5 112t-68 99t-130 79.5t-198.5 45.5v25q207 71 288 146.5t81 166.5q0 73 -57 120.5t-158 47.5
q-127 0 -291 -90l-18 22q78 110 188 177t229 67q154 0 237 -76t83 -182q0 -197 -260 -303v-14q158 -38 233.5 -133t75.5 -218z" />
    <glyph glyph-name="four" unicode="4" horiz-adv-x="1105" 
d="M1026 360h-221v-247l213 -80v-33h-656v33l218 80v247h-517l-16 37l727 887l31 -12v-754h221v-158zM580 518v430h-5l-350 -430h355z" />
    <glyph glyph-name="five" unicode="5" horiz-adv-x="1021" 
d="M922 408q0 -184 -132.5 -311.5t-330.5 -127.5q-170 0 -273.5 62t-103.5 155q0 60 39 98t94 38q85 0 120.5 -68.5t14.5 -169.5q54 -51 139 -51q89 0 154.5 74.5t65.5 205.5t-90 213t-250 82q-89 0 -197 -30l-22 8l71 667h555l80 95l27 -9l-37 -290h-570l-30 -261l8 -4
q124 15 186 15q238 0 360 -105.5t122 -285.5z" />
    <glyph glyph-name="six" unicode="6" horiz-adv-x="1081" 
d="M997 440q0 -201 -125.5 -336t-328.5 -135q-92 0 -173.5 30t-146 88t-102 153t-37.5 215q0 159 62 308t186 269q112 106 244 172t305 105l10 -41q-208 -90 -330 -209q-124 -119 -196 -318l8 -2q115 78 248 78q117 0 204.5 -55.5t129.5 -139.5t42 -182zM772 352
q0 164 -65 261.5t-203 97.5q-83 0 -158 -37q-31 -91 -31 -228q0 -109 29.5 -203.5t88 -155t134.5 -60.5q100 0 152.5 86.5t52.5 238.5z" />
    <glyph glyph-name="seven" unicode="7" horiz-adv-x="980" 
d="M784 1047h-567l-104 -121l-21 6l55 373l21 8l45 -60h731l12 -18l-585 -1266h-211l299 500z" />
    <glyph glyph-name="eight" unicode="8" horiz-adv-x="1028" 
d="M905 997q0 -191 -264 -301q153 -83 224 -168.5t71 -193.5q0 -156 -120.5 -260.5t-313.5 -104.5q-187 0 -294.5 85.5t-107.5 213.5q0 107 73.5 193.5t197.5 134.5q-120 70 -179 153.5t-59 196.5q0 147 115.5 243.5t283.5 96.5q90 0 162.5 -24.5t117.5 -65.5t69 -92.5
t24 -106.5zM340 1032q0 -93 61.5 -164.5t194.5 -146.5q62 73 89.5 138.5t27.5 144.5q0 94 -50.5 158.5t-138.5 64.5q-82 0 -133 -51.5t-51 -143.5zM717 236q0 194 -307 335q-109 -122 -109 -274q0 -115 63.5 -192.5t172.5 -77.5q79 0 129.5 59t50.5 150z" />
    <glyph glyph-name="nine" unicode="9" horiz-adv-x="1075" 
d="M991 801q0 -160 -62 -310t-186 -268q-114 -109 -248 -174t-317 -102l-10 39q216 82 346 209q125 120 203 337l-8 3q-100 -78 -232 -78q-173 0 -285 102.5t-112 269.5q0 124 55.5 228t160.5 166.5t239 62.5q204 0 330 -130t126 -355zM758 809q0 178 -66 298t-172 120
q-103 0 -159 -87t-56 -237q0 -160 69.5 -250t211.5 -90q72 0 147 37q25 83 25 209z" />
    <glyph glyph-name="colon" unicode=":" horiz-adv-x="428" 
d="M348 719q0 -55 -39 -94t-94 -39q-56 0 -95.5 39t-39.5 94t39.5 94t95.5 39q55 0 94 -39t39 -94zM348 102q0 -56 -39 -95.5t-94 -39.5t-95 39.5t-40 95.5q0 55 39.5 94.5t95.5 39.5q55 0 94 -39t39 -95z" />
    <glyph glyph-name="semicolon" unicode=";" horiz-adv-x="475" 
d="M389 719q0 -55 -38.5 -94t-94.5 -39q-57 0 -96 38.5t-39 94.5t39 94.5t96 38.5q56 0 94.5 -39t38.5 -94zM391 51q0 -92 -64 -176.5t-204 -148.5l-23 26q157 133 187 244l-4 4l-39 -10q-10 -4 -35 -4q-46 0 -76.5 32.5t-30.5 79.5q0 56 39 97t97 41q70 0 111.5 -51
t41.5 -134z" />
    <glyph glyph-name="less" unicode="&#x3c;" horiz-adv-x="1034" 
d="M874 330l-22 -99l-702 363v68l702 366l22 -102l-589 -299z" />
    <glyph glyph-name="equal" unicode="=" horiz-adv-x="1034" 
d="M950 860v-102h-866v102h866zM950 391h-866v105h866v-105z" />
    <glyph glyph-name="greater" unicode="&#x3e;" horiz-adv-x="1034" 
d="M160 926l22 100l703 -364v-66l-703 -367l-22 101l590 301z" />
    <glyph glyph-name="question" unicode="?" horiz-adv-x="841" 
d="M784 1012q0 -97 -57.5 -168.5t-179.5 -134.5q-107 -55 -147 -92.5t-40 -86.5q0 -44 33 -73t84 -29q26 0 103 10l8 -20q-29 -27 -75 -43.5t-99 -16.5q-102 0 -170 56t-68 145q0 85 55 150t177 137q98 58 141 112.5t43 133.5q0 78 -51 130t-133 52q-74 0 -123 -43
q32 -62 32 -119q0 -59 -35 -97t-92 -38q-55 0 -94 39t-39 98q0 97 102.5 159t248.5 62q165 0 270.5 -93t105.5 -230zM514 104q0 -56 -40 -95.5t-95 -39.5t-94 39.5t-39 95.5t39 95t94 39q56 0 95.5 -39.5t39.5 -94.5z" />
    <glyph glyph-name="at" unicode="@" horiz-adv-x="1689" 
d="M1464 590q0 114 -37 217.5t-108 186t-184.5 131.5t-255.5 49q-136 0 -254 -53.5t-203.5 -148.5t-134.5 -233t-49 -299q0 -203 88 -354t242 -229t354 -78q251 0 464 112l17 -24q-108 -92 -252.5 -143.5t-298.5 -51.5q-122 0 -235.5 29.5t-212 90.5t-171.5 147.5
t-115 208.5t-42 266q0 168 69 322.5t185 266t276 178t334 66.5q155 0 284.5 -52t213 -138t130 -196t46.5 -228q0 -149 -63 -280.5t-177.5 -212.5t-251.5 -81q-88 0 -138.5 37.5t-53.5 102.5l-8 4q-102 -129 -226 -129q-92 0 -151.5 70.5t-59.5 193.5q0 91 41 185
t107.5 167.5t158 120.5t185.5 47q72 0 129 -33l88 49l12 -4l-102 -579q-6 -40 -4 -75t24.5 -58t63.5 -23q121 0 198.5 125t77.5 330zM1008 688q-64 86 -144 86q-56 0 -103 -61.5t-72 -152t-25 -181.5t35 -140t100 -49q37 0 65.5 15t69.5 49z" />
    <glyph glyph-name="A" unicode="A" horiz-adv-x="1300" 
d="M1163 88l166 -53v-35h-616v35l182 43l-137 381h-406l-133 -369l141 -55v-35h-395v35l144 61l477 1221h112zM731 530l-176 488h-4l-174 -488h354z" />
    <glyph glyph-name="B" unicode="B" horiz-adv-x="1310" 
d="M1225 369q0 -75 -29.5 -141t-86.5 -117.5t-149.5 -81t-209.5 -29.5h-687v35l193 43v1149l-193 43v35h633q226 0 342.5 -81.5t116.5 -207.5q0 -118 -82.5 -200.5t-249.5 -113.5v-10q196 -19 299 -110.5t103 -212.5zM512 711l139 2q114 2 179 72t65 198q0 129 -70.5 193.5
t-181.5 66.5q-101 0 -131 -6v-526zM940 358q0 134 -77 211.5t-226 77.5h-125v-573q73 -15 156 -15q134 0 203 78t69 221z" />
    <glyph glyph-name="C" unicode="C" horiz-adv-x="1357" 
d="M1260 371l-41 -308q-105 -49 -201.5 -71.5t-229.5 -22.5q-208 0 -366.5 82t-246 234.5t-87.5 353.5q0 188 90.5 347t254.5 254t366 95q81 0 165.5 -16.5t141.5 -46.5l80 69h24l23 -467l-41 -4q-179 396 -453 396q-70 0 -132.5 -33.5t-115.5 -101.5t-84.5 -186t-31.5 -271
q0 -293 130 -459t339 -166q74 0 153 23l238 307z" />
    <glyph glyph-name="D" unicode="D" horiz-adv-x="1505" 
d="M256 1227l-190 43v35h628q171 0 308.5 -50t228 -138t138.5 -206.5t48 -257.5q0 -138 -52.5 -258.5t-147 -207.5t-233 -137t-302.5 -50h-616v35l190 43v1149zM1130 653q0 152 -35.5 264t-101 178.5t-150 99.5t-190.5 36l-141 4v-1163l186 4q432 10 432 577z" />
    <glyph glyph-name="E" unicode="E" horiz-adv-x="1325" 
d="M1135 1305l39 -396l-29 -12l-160 199q-33 40 -52 60.5t-48 40t-63.5 26.5t-84.5 8l-225 4v-545h90q89 0 132.5 38t76.5 140l20 68h37v-561h-37l-20 63q-33 102 -77 141t-132 39h-90v-546l305 6q83 1 129.5 28.5t97.5 92.5l173 221l30 -8l-47 -412h-1134v35l190 43v1149
l-190 43v35h1069z" />
    <glyph glyph-name="F" unicode="F" horiz-adv-x="1234" 
d="M1176 909l-31 -12l-160 199q-31 40 -50.5 60.5t-48.5 40t-63.5 26.5t-85.5 8l-223 4v-567h96q93 0 136 39t75 143l23 68h37v-564h-39l-21 64q-31 104 -74.5 142t-136.5 38h-96v-520l203 -43v-35h-651v35l190 43v1149l-190 43v35h1071z" />
    <glyph glyph-name="G" unicode="G" horiz-adv-x="1425" 
d="M1235 874l-41 -4q-98 196 -207.5 296t-241.5 100q-73 0 -137.5 -33.5t-117.5 -101.5t-84 -185.5t-31 -271.5q0 -155 36.5 -273t101 -189.5t148 -107.5t183.5 -36q75 0 168 34v398l-170 45v33h559v-33l-137 -45v-512l-27 -8l-164 98q-168 -109 -346 -109
q-181 0 -326.5 84.5t-229 238t-83.5 347.5q0 188 90.5 347t254.5 254t366 95q81 0 165.5 -16.5t141.5 -46.5l80 69h33z" />
    <glyph glyph-name="H" unicode="H" horiz-adv-x="1638" 
d="M1126 717v510l-178 43v35h625v-35l-191 -43v-1149l191 -43v-35h-625v35l178 43v559h-614v-559l178 -43v-35h-624v35l190 43v1149l-190 43v35h624v-35l-178 -43v-510h614z" />
    <glyph glyph-name="I" unicode="I" horiz-adv-x="819" 
d="M539 78l192 -43v-35h-645v35l195 43v1149l-195 43v35h645v-35l-192 -43v-1149z" />
    <glyph glyph-name="J" unicode="J" horiz-adv-x="1056" 
d="M823 457q0 -132 -23.5 -214t-86.5 -149q-55 -58 -153 -94.5t-218 -36.5q-156 0 -232.5 58t-76.5 143q0 63 43.5 106t101.5 43q85 0 129.5 -75.5t38.5 -210.5q132 34 176.5 111t44.5 233v856l-194 43v35h639v-35l-189 -43v-770z" />
    <glyph glyph-name="K" unicode="K" horiz-adv-x="1441" 
d="M803 764l487 -664l160 -65v-35h-576v35l117 51l-366 530h-113v-538l178 -43v-35h-624v35l190 43v1149l-190 43v35h624v-35l-178 -43v-529h133l408 494l-148 78v35h484v-35l-181 -74z" />
    <glyph glyph-name="L" unicode="L" horiz-adv-x="1247" 
d="M1188 422l-51 -422h-1071v35l190 43v1149l-190 43v35h639v-35l-191 -43v-1155l244 4q83 1 130 29.5t97 93.5l176 231z" />
    <glyph glyph-name="M" unicode="M" horiz-adv-x="1867" 
d="M1612 78l190 -43v-35h-624v35l178 43v1104h-15l-460 -1182h-54l-483 1182h-14v-1086l170 -61v-35h-416v35l170 61v1127l-170 47v35h494l79 -211l287 -734h10l281 734l76 211h491v-35l-190 -43v-1149z" />
    <glyph glyph-name="N" unicode="N" horiz-adv-x="1525" 
d="M256 100v1108l-162 62v35h406l159 -209l535 -680h12v788l-168 66v35h416v-35l-168 -66v-1216h-88l-160 209l-690 870h-14v-967l168 -65v-35h-414v35z" />
    <glyph glyph-name="O" unicode="O" horiz-adv-x="1472" 
d="M1384 653q0 -139 -45.5 -263t-127.5 -218t-207 -148.5t-275 -54.5q-156 0 -280 54.5t-202 149t-118.5 217t-40.5 263.5q0 139 45 262.5t127 217t206.5 148t274.5 54.5q157 0 281.5 -54.5t202 -148.5t118.5 -216.5t41 -262.5zM1098 653q0 152 -30.5 273t-83.5 197
t-121 115.5t-146 39.5q-58 0 -108 -19.5t-94 -65.5t-75 -117t-49 -178.5t-18 -244.5t20.5 -245.5t55 -179t84 -116.5t104.5 -65.5t119 -19.5q149 0 245.5 162.5t96.5 463.5z" />
    <glyph glyph-name="P" unicode="P" horiz-adv-x="1253" 
d="M1184 934q0 -74 -30.5 -143t-86 -123.5t-144 -87.5t-196.5 -33q-96 0 -215 18v-487l203 -43v-35h-649v35l190 43v1149l-190 43v35h636q240 0 361 -104.5t121 -266.5zM911 930q0 143 -69 225.5t-195 83.5q-115 0 -135 -4v-608q18 -4 133 -4q130 3 198 81.5t68 225.5z" />
    <glyph glyph-name="Q" unicode="Q" horiz-adv-x="1472" 
d="M1384 653q0 -162 -59 -300.5t-173.5 -236t-268.5 -130.5q117 -187 204 -246q101 -72 242 -98l-6 -31h-197q-116 0 -188 14t-121 51q-31 23 -60.5 64.5t-76.5 128.5l-59 106q-172 24 -294.5 122.5t-180.5 241t-58 314.5q0 139 45 262.5t127 217t206.5 148t274.5 54.5
q157 0 281.5 -54.5t202 -148.5t118.5 -216.5t41 -262.5zM1098 653q0 152 -30.5 273t-83.5 197t-121 115.5t-146 39.5q-58 0 -108 -19.5t-94 -65.5t-75 -117t-49 -178.5t-18 -244.5t20.5 -245.5t55 -179t84 -116.5t104.5 -65.5t119 -19.5q149 0 245.5 162.5t96.5 463.5z" />
    <glyph glyph-name="R" unicode="R" horiz-adv-x="1374" 
d="M1208 979q0 -122 -97.5 -212.5t-281.5 -123.5v-10q196 -41 271 -234q47 -111 81.5 -177.5t71.5 -104.5q39 -36 71 -54t79 -28v-35h-242q-60 0 -99 10.5t-69.5 41t-50 66.5t-49.5 105l-98 223q-41 90 -92 121t-140 31h-51v-520l190 -43v-35h-636v35l190 43v1149l-190 43
v35h684q217 0 337.5 -92.5t120.5 -233.5zM936 950q0 135 -82 211t-207 78q-115 0 -135 -4v-573l135 2q125 2 207 77t82 209z" />
    <glyph glyph-name="S" unicode="S" horiz-adv-x="1095" 
d="M1001 399q0 -129 -66.5 -229.5t-167.5 -150.5t-214 -50q-171 0 -311 72l-80 -72h-37l-25 455l43 4q170 -389 422 -389q108 0 171 63t63 162q0 94 -49 148.5t-191 113.5q-22 9 -65 25.5t-77.5 30.5t-62.5 28q-219 110 -219 334q0 88 36 163.5t95.5 124t134 76t152.5 27.5
q123 0 240 -67l79 69h35l35 -401l-41 -6q-169 336 -366 336q-88 0 -141.5 -54.5t-53.5 -144.5q0 -77 41 -132.5t145 -100.5q30 -14 110 -46.5t122 -52.5q125 -60 184 -141t59 -195z" />
    <glyph glyph-name="T" unicode="T" horiz-adv-x="1378" 
d="M1333 891l-35 -10l-155 204q-69 88 -115 117.5t-123 32.5h-80v-1157l201 -43v-35h-659v35l200 43v1157h-92q-75 -3 -120.5 -32.5t-114.5 -117.5l-156 -204l-33 10l64 414h1153z" />
    <glyph glyph-name="U" unicode="U" horiz-adv-x="1484" 
d="M1194 1208l-154 62v35h387v-35l-155 -62v-782q0 -208 -139.5 -333.5t-360.5 -125.5q-257 0 -396.5 118t-139.5 355v787l-191 43v35h639v-35l-190 -43v-787q0 -187 89 -273.5t273 -86.5q165 0 251.5 102.5t86.5 274.5v751z" />
    <glyph glyph-name="V" unicode="V" horiz-adv-x="1374" 
d="M1239 1206l-496 -1218h-73l-494 1229l-170 53v35h623v-35l-183 -43l347 -926l335 899l-141 70v35h389v-35z" />
    <glyph glyph-name="W" unicode="W" horiz-adv-x="1937" 
d="M1161 1227l279 -895h4l248 868l-142 70v35h389v-35l-137 -64l-407 -1218h-70l-332 942h-4l-356 -942h-72l-387 1229l-172 53v35h608v-35l-166 -43l244 -897h4l258 725l-51 162l-145 53v35h577v-35z" />
    <glyph glyph-name="X" unicode="X" horiz-adv-x="1452" 
d="M1212 1214q-381 -493 -381 -495q0 1 107.5 -158.5t215.5 -318.5l108 -160l161 -47v-35h-620v35l164 41q-289 463 -291 463l-299 -451l139 -53v-35h-453v35l168 55l398 516l-408 617l-164 47v35h621v-35l-162 -39l266 -440l287 426l-141 53v35h456v-35z" />
    <glyph glyph-name="Y" unicode="Y" horiz-adv-x="1300" 
d="M1178 1208l-377 -598v-524l196 -51v-35h-649v35l197 51v473l-383 651l-168 60v35h624v-35l-163 -49l297 -547l284 534l-137 62v35h428v-35z" />
    <glyph glyph-name="Z" unicode="Z" horiz-adv-x="1298" 
d="M1212 428l-43 -428h-1095l-8 20l817 1207l-324 -2q-82 -1 -130 -31.5t-122 -114.5l-143 -166l-29 13l41 379h1022l8 -21l-813 -1208l404 4q81 0 125 29t100 104l166 223z" />
    <glyph glyph-name="bracketleft" unicode="[" horiz-adv-x="641" 
d="M739 1452h-346v-1747h346v-65h-544v1878h544v-66z" />
    <glyph glyph-name="backslash" unicode="\" horiz-adv-x="759" 
d="M53 1518l410 -961l420 -954l-74 -35l-410 960l-419 957z" />
    <glyph glyph-name="bracketright" unicode="]" horiz-adv-x="641" 
d="M248 1452h-346v66h547v-1878h-547v65h346v1747z" />
    <glyph glyph-name="asciicircum" unicode="^" horiz-adv-x="632" 
d="M317 1212l-247 -176l-29 25l264 369h37l248 -369l-27 -25z" />
    <glyph glyph-name="underscore" unicode="_" horiz-adv-x="901" 
d="M901 80v-80h-901v80h901z" />
    <glyph glyph-name="grave" unicode="`" horiz-adv-x="487" 
d="M381 1055l-27 -17q-21 20 -73.5 68t-78 72.5t-57.5 58.5t-49 57q-29 41 -24.5 84t39.5 66q36 21 76.5 7t64.5 -54q7 -12 13.5 -25.5t14 -31.5t14 -33t15 -38.5t13.5 -38.5t15 -43t14.5 -42t15 -46t14.5 -44z" />
    <glyph glyph-name="a" unicode="a" horiz-adv-x="974" 
d="M819 674v-535q0 -53 35.5 -77t120.5 -23l4 -25q-117 -49 -221 -49q-137 0 -148 139l-8 5q-142 -142 -295 -142q-107 0 -170 57.5t-63 151.5q0 135 143 213t385 94v172q0 98 -53.5 151.5t-161.5 53.5q-61 0 -125 -20q76 -61 76 -140q0 -46 -32.5 -80t-82.5 -34
q-52 0 -83 34t-31 82q0 72 69.5 131.5t168.5 90t198 30.5q274 0 274 -280zM602 141v289q-160 -4 -229.5 -54.5t-69.5 -139.5q0 -67 37.5 -105.5t99.5 -38.5q71 0 162 49z" />
    <glyph glyph-name="b" unicode="b" horiz-adv-x="1105" 
d="M1032 485q0 -146 -68 -263.5t-194 -186t-287 -68.5q-167 0 -346 53v1289l-143 92v20l354 97l8 -7v-686l9 -4q135 135 297 135q153 0 261.5 -129.5t108.5 -341.5zM801 434q0 187 -75 283t-208 96q-81 0 -162 -33v-649q90 -94 224 -94q99 0 160 96.5t61 300.5z" />
    <glyph glyph-name="c" unicode="c" horiz-adv-x="954" 
d="M897 752q0 -58 -35 -98t-88 -40q-60 0 -96.5 40t-36.5 94q0 77 49 137q-25 6 -74 6q-66 0 -122 -23t-101 -69t-70.5 -124t-25.5 -181q0 -174 87 -283t226 -109q119 0 285 66l10 -25q-173 -176 -377 -176q-200 0 -331 132.5t-131 344.5q0 141 64.5 257.5t183 185.5
t266.5 69q141 0 229 -59t88 -145z" />
    <glyph glyph-name="d" unicode="d" horiz-adv-x="1122" 
d="M967 113l135 -52v-20l-322 -76l-10 4l-16 123l-9 4l-40 -35q-109 -94 -242 -94q-77 0 -146.5 30t-124.5 86.5t-87.5 147t-32.5 203.5q0 223 143.5 372.5t370.5 149.5q90 0 164 -18v371l-142 92v20l350 97l9 -7v-1398zM305 483q0 -183 75.5 -285t207.5 -102q89 0 162 60
v628q-40 55 -88.5 83t-116.5 28q-46 0 -87.5 -23.5t-76.5 -70.5t-55.5 -129t-20.5 -189z" />
    <glyph glyph-name="e" unicode="e" horiz-adv-x="1001" 
d="M936 532h-637q0 -208 70 -319t235 -111q129 0 309 66l13 -25q-202 -176 -396 -176q-210 0 -337 131.5t-127 345.5q0 143 65.5 261.5t173.5 184.5t232 66q195 0 298 -117.5t101 -306.5zM301 584l406 18q-12 297 -185 297q-90 0 -152 -87t-69 -228z" />
    <glyph glyph-name="f" unicode="f" horiz-adv-x="673" 
d="M688 817h-256v-745l160 -43v-29h-508v29l129 43v745h-184v35l184 74v84q0 147 42.5 245t129.5 170q112 93 266 93q98 0 154.5 -46t56.5 -106q0 -56 -30.5 -88.5t-86.5 -32.5q-57 0 -105 50t-81 149q-68 -36 -97.5 -114t-29.5 -228v-182h256v-103z" />
    <glyph glyph-name="g" unicode="g" horiz-adv-x="1036" 
d="M877 655q0 -142 -109 -231.5t-281 -89.5q-92 0 -165 28q-33 -42 -33 -116q0 -40 31 -58.5t104 -19.5l256 -4q313 -6 313 -234q0 -62 -37 -124t-104 -114.5t-172 -85t-229 -32.5q-196 0 -311 65.5t-115 157.5q0 60 57.5 114t163.5 85l-2 12q-61 15 -93 49t-32 80
q0 104 162 234v10q-87 40 -136 106.5t-49 155.5q0 139 115 225t287 86q162 0 262 -71q77 55 133.5 82.5t107.5 27.5q56 0 86.5 -30.5t30.5 -75.5q0 -44 -30.5 -76.5t-73.5 -32.5t-72 25.5t-33 68.5l-108 -16l-4 -10q80 -77 80 -191zM649 647q0 117 -43.5 186.5t-126.5 69.5
q-78 0 -119 -60t-41 -196q0 -145 42.5 -203.5t132.5 -58.5q72 0 113.5 72t41.5 190zM821 -168q0 67 -49.5 107t-153.5 43l-327 2q-32 -23 -50 -63t-18 -85q0 -91 78 -144.5t231 -53.5q133 0 211 56t78 138z" />
    <glyph glyph-name="h" unicode="h" horiz-adv-x="1155" 
d="M788 588q0 213 -180 213q-108 0 -213 -51v-678l115 -43v-29h-463v29l129 43v1237l-141 92v20l352 97l8 -7v-716l8 -4q174 165 342 165q88 0 149 -41.5t87.5 -104t26.5 -138.5v-600l129 -43v-29h-463v29l114 43v516z" />
    <glyph glyph-name="i" unicode="i" horiz-adv-x="573" 
d="M160 1249q0 58 42.5 103t102.5 45q58 0 94.5 -37.5t36.5 -95.5q0 -60 -41.5 -104t-103.5 -44q-57 0 -94 37.5t-37 95.5zM188 768l-127 92v21l338 80l9 -7v-882l129 -43v-29h-484v29l135 43v696z" />
    <glyph glyph-name="j" unicode="j" horiz-adv-x="559" 
d="M162 1249q0 58 42.5 103t102.5 45q57 0 94 -38t37 -95q0 -59 -42 -103.5t-103 -44.5q-57 0 -94 37.5t-37 95.5zM414 47q0 -143 -20 -215t-72 -135q-49 -64 -125.5 -93.5t-161.5 -29.5q-97 0 -146 41t-49 98q0 52 33 81.5t84 29.5q59 0 98.5 -50.5t48.5 -133.5
q52 27 71.5 77.5t19.5 151.5v899l-129 92v21l340 80l8 -7v-907z" />
    <glyph glyph-name="k" unicode="k" horiz-adv-x="1073" 
d="M614 559l357 -487l106 -43v-29h-442v29l80 43l-250 362h-70v-362l103 -43v-29h-455v29l133 43v1237l-141 92v20l352 97l8 -7v-1001h80l254 319l-111 70v25h410v-27l-129 -51z" />
    <glyph glyph-name="l" unicode="l" horiz-adv-x="559" 
d="M395 72l129 -43v-29h-483v29l135 43v1237l-141 92v20l352 97l8 -7v-1439z" />
    <glyph glyph-name="m" unicode="m" horiz-adv-x="1708" 
d="M1341 588q0 107 -38 160t-132 53q-23 0 -41.5 -2.5t-40 -10t-32.5 -12t-39.5 -18t-40.5 -19.5v-667l119 -43v-29h-453v29l115 43v522q0 107 -35 157t-127 50q-58 0 -96 -10t-97 -39v-680l115 -43v-29h-463v29l129 43v696l-129 92v21l328 80l8 -7l-4 -163l8 -5
q92 88 172 129t162 41q96 0 154 -48t80 -126l8 -4q98 91 179 137t161 46q66 0 116 -24t77.5 -65.5t41 -91t13.5 -106.5v-602l131 -43v-29h-465v29l116 43v516z" />
    <glyph glyph-name="n" unicode="n" horiz-adv-x="1146" 
d="M997 672v-600l129 -43v-29h-462v29l114 43v516q0 105 -38.5 159t-129.5 54q-102 0 -207 -51v-678l115 -43v-29h-463v29l129 43v696l-129 92v21l328 80l8 -7l-4 -166l8 -4q181 172 350 172q66 0 116.5 -23.5t79 -64.5t42.5 -90t14 -106z" />
    <glyph glyph-name="o" unicode="o" horiz-adv-x="1085" 
d="M1018 465q0 -96 -32.5 -185t-92.5 -159t-154.5 -112t-208.5 -42q-150 0 -257 68t-157 178.5t-50 249.5q0 96 33 184t93.5 157t155.5 110.5t209 41.5q113 0 202.5 -38.5t145 -106t84.5 -155.5t29 -191zM778 465q0 207 -62.5 320.5t-176.5 113.5q-108 0 -170 -115.5
t-62 -324.5q0 -205 65 -319.5t175 -114.5q112 0 171.5 114t59.5 326z" />
    <glyph glyph-name="p" unicode="p" horiz-adv-x="1136" 
d="M1065 489q0 -102 -36.5 -196t-102 -167t-166 -116t-219.5 -43q-67 0 -154 17v-334l150 -49v-27h-498v27l129 49v1118l-127 90v21l326 82l8 -7l-2 -151l8 -4q154 157 319 157q156 0 260.5 -129.5t104.5 -337.5zM831 436q0 183 -71 280t-203 97q-78 0 -170 -45v-635
q47 -54 97 -80t116 -26q97 0 164 102.5t67 306.5z" />
    <glyph glyph-name="q" unicode="q" horiz-adv-x="1093" 
d="M1096 -426h-496v27l148 49v434l-9 4l-41 -33q-113 -88 -229 -88q-169 0 -283 125.5t-114 339.5q0 102 35.5 196t100.5 167t166 117t222 44q114 0 246 -51l104 94l21 -6v-1343l129 -49v-27zM588 92q85 0 162 47v654q-40 53 -88.5 78.5t-116.5 25.5q-46 0 -87.5 -23.5
t-76.5 -71t-55.5 -130t-20.5 -189.5q0 -183 76 -287t207 -104z" />
    <glyph glyph-name="r" unicode="r" horiz-adv-x="841" 
d="M819 821q0 -58 -34 -95.5t-89 -37.5q-50 0 -86.5 33.5t-46.5 91.5q-105 -9 -160 -104v-637l142 -43v-29h-490v29l129 43v696l-127 92v21l326 80l8 -7l-6 -194l8 -6q58 96 134.5 149t146.5 53q68 0 106.5 -37.5t38.5 -97.5z" />
    <glyph glyph-name="s" unicode="s" horiz-adv-x="825" 
d="M756 279q0 -139 -106.5 -225.5t-260.5 -86.5q-161 0 -303 56l-2 270l41 4q83 -146 152 -207t151 -61q72 0 114 42t42 113q0 22 -7 42t-16 34.5t-30 30t-34.5 25t-43.5 23.5t-44.5 20t-50.5 20q-50 21 -78.5 35t-69.5 40.5t-63 53.5t-38.5 68t-16.5 90q0 123 98.5 206.5
t253.5 83.5q60 0 133.5 -10.5t114.5 -25.5l6 -244l-39 -10q-76 127 -133.5 178t-126.5 51q-63 0 -101 -37t-38 -94q0 -31 14 -57.5t31 -44t53 -37t59 -29.5t70 -29q50 -20 79 -33.5t70 -40t63.5 -53.5t39.5 -69t17 -92z" />
    <glyph glyph-name="t" unicode="t" horiz-adv-x="710" 
d="M709 68q-64 -39 -153 -66t-169 -27q-117 0 -165 56t-48 172v612h-151v29l188 149l149 195h31v-266h311v-107h-311v-530q0 -64 11.5 -101.5t41.5 -58.5q46 -33 150 -33q35 0 113 4z" />
    <glyph glyph-name="u" unicode="u" horiz-adv-x="1128" 
d="M975 125l129 -55v-21l-328 -82l-8 4l4 162l-8 6q-181 -172 -348 -172q-67 0 -117.5 23.5t-79.5 65t-43 90.5t-14 106v532l-125 76v21l336 80l8 -7v-618q0 -106 39 -159.5t131 -53.5q99 0 205 49v612l-125 76v21l336 80l8 -7v-829z" />
    <glyph glyph-name="v" unicode="v" horiz-adv-x="1021" 
d="M365 848l225 -592h8l100 260l109 318l-119 63v27h359v-27l-140 -68l-358 -852h-62l-366 871l-125 49v27h502v-27z" />
    <glyph glyph-name="w" unicode="w" horiz-adv-x="1474" 
d="M907 848l160 -580h10l195 566l-117 63v27h365v-27l-142 -68l-352 -852h-53l-203 586l-281 -586h-53l-323 871l-123 49v27h479v-27l-113 -49l187 -586h10q11 25 30 67t58.5 129.5t65.5 146t26 57.5q1 0 -15 46.5t-32 93.5l-16 46l-105 49v27h467v-27z" />
    <glyph glyph-name="x" unicode="x" horiz-adv-x="1058" 
d="M578 571l182 275l-101 51v27h363v-27l-141 -59l-265 -328l312 -438l119 -43v-29h-506v29l123 43l-181 284l-192 -278l100 -49v-29h-356v29l135 57l270 332l-299 436l-121 43v27h502v-27l-119 -43z" />
    <glyph glyph-name="y" unicode="y" horiz-adv-x="1007" 
d="M903 829l-358 -892q-77 -190 -154 -276.5t-172 -86.5q-77 0 -118.5 37.5t-41.5 91.5q0 47 36.5 82t86.5 35q49 0 84 -24t76 -75q63 69 113 175l34 77l-362 875l-125 49v27h500v-27l-131 -49l221 -600h10l201 586l-119 63v27h352v-27z" />
    <glyph glyph-name="z" unicode="z" horiz-adv-x="958" 
d="M907 903l-585 -835h317l225 251l31 -12l-29 -307h-813l-12 23l586 833h-295l-209 -252l-29 12l21 308h780z" />
    <glyph glyph-name="braceleft" unicode="{" horiz-adv-x="688" 
d="M489 963q0 -94 -17.5 -161t-55 -110t-88 -67.5t-123.5 -38.5v-4q147 -26 215.5 -109.5t68.5 -265.5v-240q0 -138 49 -195.5t183 -84.5v-47q-116 9 -190.5 27.5t-134 57.5t-86.5 106t-27 169v274q0 150 -55 211t-205 78v41q150 19 205 80t55 211v262q0 81 19 140.5
t52.5 98.5t90 64t121 38t155.5 20v-48q-134 -27 -183 -85t-49 -197v-225z" />
    <glyph glyph-name="bar" unicode="|" horiz-adv-x="550" 
d="M319 -494h-88l7 965l-7 965h88l-6 -965z" />
    <glyph glyph-name="braceright" unicode="}" horiz-adv-x="688" 
d="M406 895q0 -150 55 -211t205 -80v-41q-150 -17 -205 -78t-55 -211v-274q0 -82 -19 -141.5t-52.5 -98t-90.5 -63.5t-121 -37.5t-156 -19.5v47q134 27 183 84.5t49 195.5v240q0 182 68.5 265.5t215.5 109.5v4q-73 14 -123.5 38.5t-88 67.5t-55 110t-17.5 161v225
q0 139 -49 197t-183 85v48q91 -7 155.5 -20t121.5 -38t90.5 -64t52.5 -98.5t19 -140.5v-262z" />
    <glyph glyph-name="asciitilde" unicode="~" horiz-adv-x="739" 
d="M254 764q54 0 146 -36t128 -36q65 0 99 84l35 -10q-22 -217 -173 -217q-54 0 -147.5 36t-130.5 36q-61 0 -98 -84l-35 10q18 112 62 164.5t114 52.5z" />
    <glyph glyph-name="quotesinglbase" horiz-adv-x="462" 
d="M373 51q0 -92 -64.5 -176.5t-204.5 -148.5l-22 26q88 74 129.5 131.5t56.5 112.5l-4 4l-39 -10q-12 -4 -35 -4q-46 0 -76 32t-30 80q0 56 38.5 97t94.5 41q71 0 113.5 -51t42.5 -134z" />
    <glyph glyph-name="florin" horiz-adv-x="1013" 
d="M1024 1149q0 -47 -31.5 -80t-87.5 -33q-57 0 -111 44t-83 128q-62 -48 -99.5 -143t-66.5 -311l-4 -41h245l-16 -103h-244l-51 -350q-28 -203 -75.5 -324t-135.5 -212q-48 -50 -111 -76.5t-124 -26.5q-83 0 -133 35.5t-50 89.5q0 46 34 79.5t85 33.5q57 0 107.5 -38
t81.5 -110q27 38 46 112t38 214l81 573h-213l7 35l225 80l2 25q26 150 74 247t133 172q60 57 136.5 87t150.5 30q79 0 134.5 -39t55.5 -98z" />
    <glyph glyph-name="quotedblbase" horiz-adv-x="776" 
d="M700 59q0 -86 -62 -167t-194 -142l-20 25q145 124 176 233l-4 4l-37 -12q-20 -4 -31 -4q-44 0 -73 31.5t-29 76.5q0 53 37 92.5t90 39.5q67 0 107 -49t40 -128zM358 59q0 -86 -61.5 -167t-194.5 -142l-18 25q146 127 176 233l-4 4l-37 -12q-20 -4 -33 -4q-44 0 -73 31.5
t-29 76.5q0 54 37 93t92 39q67 0 106 -49t39 -128z" />
    <glyph glyph-name="ellipsis" unicode="&#x85;" horiz-adv-x="1308" 
d="M1229 102q0 -56 -39 -95.5t-94 -39.5q-57 0 -96 39.5t-39 95.5t39 95t96 39q55 0 94 -39t39 -95zM788 102q0 -56 -39 -95.5t-94 -39.5t-95 39.5t-40 95.5q0 55 39.5 94.5t95.5 39.5q55 0 94 -39t39 -95zM350 102q0 -56 -39 -95.5t-96 -39.5q-55 0 -95 39.5t-40 95.5
q0 55 39.5 94.5t95.5 39.5q57 0 96 -39t39 -95z" />
    <glyph glyph-name="dagger" horiz-adv-x="919" 
d="M870 813l-372 8l8 -991h-92l8 991l-373 -8v84l373 -8l-8 483h92l-8 -483l372 8v-84z" />
    <glyph glyph-name="daggerdbl" horiz-adv-x="919" 
d="M870 305l-372 8l8 -483h-92l8 483l-373 -8v84l373 -8v440l-373 -8v84l373 -8l-8 483h92l-8 -483l372 8v-84l-372 8v-440l372 8v-84z" />
    <glyph glyph-name="circumflex" horiz-adv-x="632" 
d="M317 1212l-247 -176l-29 25l264 369h37l248 -369l-27 -25z" />
    <glyph glyph-name="perthousand" horiz-adv-x="1503" 
d="M1436 653q0 -140 -54.5 -266.5t-146 -218t-218 -145.5t-265.5 -54t-265.5 54t-218 145.5t-146 218t-54.5 266.5q0 139 54.5 265.5t146 217.5t218 145t265.5 54t265.5 -54t218 -145t146 -217.5t54.5 -265.5zM1368 653q0 168 -82.5 311t-224.5 226.5t-309 83.5
t-309.5 -83.5t-225 -226.5t-82.5 -311q0 -126 49 -241t131.5 -198.5t197 -133t239.5 -49.5q167 0 309 83.5t224.5 227t82.5 311.5zM1057 829q0 -67 -50.5 -116.5t-154.5 -67.5v-4q70 -10 108 -42t56 -87q30 -92 65 -135q25 -28 64 -37v-33h-131q-61 0 -90 25.5t-56 97.5
l-45 109q-18 45 -44.5 59t-82.5 14h-16v-245l94 -27v-33h-348v33l94 27v573l-94 27v30h405q109 0 167.5 -49.5t58.5 -118.5zM891 805q0 69 -39.5 106t-101.5 39q-2 0 -20 1t-31 1.5t-19 -0.5v-297l70 2q64 2 102.5 41.5t38.5 106.5z" />
    <glyph glyph-name="Scaron" horiz-adv-x="1095" 
d="M557 1647l246 178l26 -23l-262 -368h-37l-249 368l28 23zM1001 399q0 -129 -66.5 -229.5t-167.5 -150.5t-214 -50q-171 0 -311 72l-80 -72h-37l-25 455l43 4q170 -389 422 -389q108 0 171 63t63 162q0 94 -49 148.5t-191 113.5q-22 9 -65 25.5t-77.5 30.5t-62.5 28
q-219 110 -219 334q0 88 36 163.5t95.5 124t134 76t152.5 27.5q123 0 240 -67l79 69h35l35 -401l-41 -6q-169 336 -366 336q-88 0 -141.5 -54.5t-53.5 -144.5q0 -77 41 -132.5t145 -100.5q30 -14 110 -46.5t122 -52.5q125 -60 184 -141t59 -195z" />
    <glyph glyph-name="guilsinglleft" horiz-adv-x="614" 
d="M268 459l238 -361l-41 -37l-404 388v20l404 387l41 -39z" />
    <glyph glyph-name="OE" horiz-adv-x="2060" 
d="M1982 412l-47 -412h-1126q-170 0 -307.5 50t-227.5 137.5t-138 206.5t-48 259q0 138 52.5 257.5t147 207t233 137.5t302.5 50h1049l39 -396l-29 -12l-160 199q-32 40 -52 60.5t-48.5 40t-63 26.5t-83.5 8l-226 4v-545h88q90 0 134 38t77 140l21 68h37v-561h-37l-21 63
q-35 102 -78.5 141t-132.5 39h-88v-546l305 6q83 1 130 28.5t98 92.5l172 221zM375 653q0 -152 35.5 -264.5t101 -180t150 -100t190.5 -34.5l139 -2v1163l-186 -4q-430 -10 -430 -578z" />
    <glyph glyph-name="quoteleft" horiz-adv-x="448" 
d="M365 977q0 -56 -39 -95.5t-97 -39.5q-70 0 -111.5 51t-41.5 133q0 91 64.5 175.5t203.5 148.5l21 -27q-155 -133 -185 -244l4 -2l37 10q15 5 35 5q47 0 78 -32.5t31 -82.5z" />
    <glyph glyph-name="quoteright" horiz-adv-x="448" 
d="M373 1151q0 -92 -64.5 -176t-204.5 -148l-22 27q154 131 186 242l-4 4l-39 -10q-15 -5 -35 -5q-45 0 -75.5 32.5t-30.5 80.5q0 56 38.5 96.5t94.5 40.5q71 0 113.5 -50.5t42.5 -133.5z" />
    <glyph glyph-name="quotedblleft" horiz-adv-x="774" 
d="M690 995q0 -53 -37 -92t-92 -39q-66 0 -105.5 49t-39.5 127q0 86 61 167.5t193 142.5l20 -25q-83 -72 -122 -127t-52 -106l2 -2l37 10q20 4 33 4q44 0 73 -31.5t29 -77.5zM350 995q0 -53 -37 -92t-92 -39q-67 0 -107 49t-40 127q0 86 62 167.5t194 142.5l20 -25
q-84 -72 -123.5 -126.5t-52.5 -106.5l2 -2l37 10q20 4 35 4q44 0 73 -31.5t29 -77.5z" />
    <glyph glyph-name="quotedblright" horiz-adv-x="776" 
d="M700 1159q0 -86 -62 -167t-194 -142l-20 27q143 120 176 231l-4 4l-37 -12q-20 -4 -31 -4q-44 0 -73 31.5t-29 76.5q0 53 37 92t90 39q67 0 107 -48.5t40 -127.5zM358 1159q0 -86 -61.5 -167t-194.5 -142l-18 27q144 123 176 231l-4 4l-37 -12q-20 -4 -33 -4
q-44 0 -73 31.5t-29 76.5q0 53 37 92t92 39q67 0 106 -48.5t39 -127.5z" />
    <glyph glyph-name="bullet" horiz-adv-x="962" 
d="M782 653q0 -127 -88.5 -216t-214.5 -89t-214.5 89t-88.5 216q0 126 88.5 214.5t214.5 88.5t214.5 -88.5t88.5 -214.5z" />
    <glyph glyph-name="endash" horiz-adv-x="1097" 
d="M1010 471h-920v80h920v-80z" />
    <glyph glyph-name="emdash" horiz-adv-x="1609" 
d="M1522 471h-1432v80h1432v-80z" />
    <glyph glyph-name="tilde" horiz-adv-x="698" 
d="M45 1081q19 123 63 178.5t123 55.5q58 0 152 -39t133 -39q70 0 107 92l34 -12q-12 -125 -54.5 -181.5t-121.5 -56.5q-59 0 -157 40t-138 40q-68 0 -104 -90z" />
    <glyph glyph-name="trademark" horiz-adv-x="1081" 
d="M973 1264v-295l53 -19v-20h-192v20l45 19v286h-9l-122 -325h-37l-131 325h-9v-280l52 -25v-20h-138v20l50 25v289l-50 18v23h179l22 -64l70 -182h4l67 182l21 64h178v-23zM434 1167l-14 -2l-51 70q-26 38 -60 41h-18v-307l53 -19v-20h-203v20l56 19v307h-21
q-19 -2 -31.5 -10t-29.5 -31l-52 -70l-14 2l17 138h354z" />
    <glyph glyph-name="scaron" horiz-adv-x="825" 
d="M422 1266l246 178l26 -23l-262 -368h-37l-250 368l29 23zM756 279q0 -139 -106.5 -225.5t-260.5 -86.5q-161 0 -303 56l-2 270l41 4q83 -146 152 -207t151 -61q72 0 114 42t42 113q0 22 -7 42t-16 34.5t-30 30t-34.5 25t-43.5 23.5t-44.5 20t-50.5 20q-50 21 -78.5 35
t-69.5 40.5t-63 53.5t-38.5 68t-16.5 90q0 123 98.5 206.5t253.5 83.5q60 0 133.5 -10.5t114.5 -25.5l6 -244l-39 -10q-76 127 -133.5 178t-126.5 51q-63 0 -101 -37t-38 -94q0 -31 14 -57.5t31 -44t53 -37t59 -29.5t70 -29q50 -20 79 -33.5t70 -40t63.5 -53.5t39.5 -69
t17 -92z" />
    <glyph glyph-name="guilsinglright" horiz-adv-x="614" 
d="M553 469v-20l-401 -388l-43 37l237 361l-237 358l43 39z" />
    <glyph glyph-name="oe" horiz-adv-x="1720" 
d="M1018 532q0 -208 70 -319t235 -111q134 0 309 68l13 -27q-208 -176 -396 -176q-232 0 -356 166q-132 -166 -363 -166q-150 0 -257 68t-157 178.5t-50 249.5q0 96 33 184t93.5 157.5t155.5 110.5t209 41q240 0 358 -170q63 79 151.5 124.5t188.5 45.5q196 0 299 -117
t101 -307h-637zM1018 586l407 18q-13 297 -184 297q-90 0 -152 -87.5t-71 -227.5zM778 465q0 207 -62.5 320.5t-176.5 113.5q-108 0 -170 -115.5t-62 -324.5q0 -204 64.5 -319t173.5 -115q113 0 173 114t60 326z" />
    <glyph glyph-name="Ydieresis" horiz-adv-x="1300" 
d="M936 1491q-52 0 -86.5 35t-34.5 88q0 54 39 94.5t96 40.5q52 0 85.5 -34.5t33.5 -88.5t-38.5 -94.5t-94.5 -40.5zM565 1491q-53 0 -87 35t-34 88q0 54 39.5 94.5t96.5 40.5q52 0 85 -34.5t33 -88.5t-38.5 -94.5t-94.5 -40.5zM1178 1208l-377 -598v-524l196 -51v-35h-649
v35l197 51v473l-383 651l-168 60v35h624v-35l-163 -49l297 -547l284 534l-137 62v35h428v-35z" />
    <glyph glyph-name="exclamdown" unicode="&#xa1;" horiz-adv-x="546" 
d="M406 719q0 -55 -40 -94t-96 -39t-95.5 39t-39.5 94t39.5 94t95.5 39t96 -39t40 -94zM240 446h59q15 -113 43.5 -308t44.5 -318t16 -178q0 -74 -35 -115t-100 -41t-99 41t-34 115q0 54 16.5 178t45 317.5t43.5 308.5z" />
    <glyph glyph-name="cent" unicode="&#xa2;" horiz-adv-x="1001" 
d="M555 115q34 -11 78 -11q116 0 289 74l12 -26q-181 -181 -387 -181l-10 -168l-72 7l12 163q-175 22 -288 151.5t-113 321.5q0 202 133.5 347.5t335.5 160.5l10 144l70 -6l-11 -136q144 -6 233 -69t89 -146q0 -64 -34.5 -104.5t-90.5 -40.5q-65 0 -100.5 44t-30 108
t48.5 120q-45 25 -119 25l-35 -447zM307 496q0 -123 49 -217.5t133 -139.5l25 312l27 432q-100 -29 -167 -126.5t-67 -260.5z" />
    <glyph glyph-name="sterling" unicode="&#xa3;" horiz-adv-x="1136" 
d="M881 682v-90h-277q0 -6 1 -19.5t1 -19.5q0 -105 -59.5 -190t-173.5 -142l4 -14q78 8 250.5 -3t199.5 -11q82 0 123 47t64 149l45 -4q-9 -190 -83 -303t-200 -113q-169 0 -434 166q-28 -74 -79.5 -120t-108.5 -46q-55 0 -83 27.5t-28 71.5q0 61 66 107.5t186 47.5
q78 107 78 244q0 61 -25 125h-268v90h229q-43 85 -43 176q0 88 40.5 168.5t106.5 136.5t152 89.5t174 33.5q78 0 135.5 -16.5t87.5 -42.5t44 -53.5t14 -55.5q0 -52 -34 -89.5t-91 -37.5q-70 0 -124 62t-71 166q-92 -26 -142 -102t-50 -185q0 -112 74 -250h299z" />
    <glyph glyph-name="currency" unicode="&#xa4;" horiz-adv-x="1179" 
d="M176 696h-139v80h151q52 232 212.5 371t373.5 139q148 0 233 -60.5t85 -148.5q0 -61 -34.5 -100t-92.5 -39q-64 0 -101 45.5t-34 108t42 110.5q-46 19 -96 19q-56 0 -110 -25t-103.5 -75.5t-85.5 -139.5t-49 -205h510v-80h-516q0 -9 -1 -28.5t-1 -28.5q0 -55 6 -104h512
v-80h-496q39 -158 144.5 -246t247.5 -88q144 0 262 49l10 -25q-67 -81 -163 -128.5t-208 -47.5q-206 0 -362 128t-193 358h-143v80h133v51q0 54 6 110z" />
    <glyph glyph-name="yen" unicode="&#xa5;" horiz-adv-x="1314" 
d="M184 645h312l-306 514l-161 60v34h606v-34l-178 -50l260 -497l278 485l-149 62v34h438v-34l-160 -68l-331 -506h333v-82h-352v-135h352v-82h-352v-260l211 -51v-35h-657v35l209 51v260h-353v82h353v135h-353v82z" />
    <glyph glyph-name="brokenbar" unicode="&#xa6;" horiz-adv-x="550" 
d="M319 582h-88l7 426l-7 428h88l-6 -428zM319 -494h-88l7 428l-7 426h88l-6 -426z" />
    <glyph glyph-name="section" unicode="&#xa7;" horiz-adv-x="1021" 
d="M911 326q0 -109 -38 -207t-102.5 -168t-152 -111t-182.5 -41q-146 0 -239 67.5t-93 153.5q0 56 35 93t86 37q53 0 88 -34.5t35 -82.5q0 -51 -29 -105q59 -65 160 -65q89 0 161.5 59t104.5 158q-634 367 -634 766q0 223 139.5 375.5t333.5 152.5q145 0 237 -67t92 -154
q0 -57 -33.5 -94t-84.5 -37q-53 0 -88 34.5t-35 84.5q0 52 28 104q-26 31 -69 48.5t-90 17.5q-89 0 -162.5 -61.5t-104.5 -162.5q637 -367 637 -761zM256 961q0 -97 34 -195t104 -201.5t155.5 -201.5t210.5 -222q6 35 6 72q0 97 -34 194t-104.5 199t-156.5 198.5t-211 219.5
q-4 -20 -4 -63z" />
    <glyph glyph-name="dieresis" unicode="&#xa8;" horiz-adv-x="700" 
d="M524 1110q-52 0 -86.5 35t-34.5 88q0 54 39.5 94.5t96.5 40.5q52 0 85 -34.5t33 -88.5t-38.5 -94.5t-94.5 -40.5zM154 1110q-53 0 -87 35t-34 88q0 54 39 94.5t96 40.5q52 0 85.5 -34.5t33.5 -88.5t-38.5 -94.5t-94.5 -40.5z" />
    <glyph glyph-name="copyright" unicode="&#xa9;" horiz-adv-x="1503" 
d="M1436 653q0 -140 -54.5 -266.5t-146 -218t-218 -145.5t-265.5 -54t-265.5 54t-218 145.5t-146 218t-54.5 266.5q0 139 54.5 265.5t146 217.5t218 145t265.5 54t265.5 -54t218 -145t146 -217.5t54.5 -265.5zM1368 653q0 168 -82.5 311t-224.5 226.5t-309 83.5
t-309.5 -83.5t-225 -226.5t-82.5 -311q0 -126 49 -241t131.5 -198.5t197 -133t239.5 -49.5q167 0 309 83.5t224.5 227t82.5 311.5zM573 664q0 -151 60.5 -235.5t165.5 -84.5q40 0 71 10l129 170l25 -4l-25 -184q-102 -45 -231 -45q-169 0 -271 95.5t-102 258.5
q0 153 109 261t274 108q92 0 160 -33l31 37h26l17 -262l-35 -2q-40 101 -97 157t-122 56q-79 0 -132 -73t-53 -230z" />
    <glyph glyph-name="ordfeminine" unicode="&#xaa;" horiz-adv-x="794" 
d="M117 1151q0 54 53.5 98t127.5 65t146 21q99 0 152 -50t53 -146v-363q0 -40 23.5 -60.5t87.5 -21.5l2 -20q-86 -33 -166 -33q-102 0 -115 92l-8 2q-97 -94 -205 -94q-81 0 -128.5 41.5t-47.5 108.5q0 97 104 152.5t277 60.5v122q0 67 -36 102.5t-120 35.5q-9 0 -79 -9
q59 -45 59 -106q0 -35 -24.5 -60.5t-63.5 -25.5q-41 0 -66.5 25.5t-25.5 62.5zM276 829q0 -46 27.5 -73t69.5 -27q47 0 100 35v201q-106 -4 -151.5 -38.5t-45.5 -97.5z" />
    <glyph glyph-name="guillemotleft" unicode="&#xab;" horiz-adv-x="976" 
d="M631 459l237 -361l-41 -37l-403 388v20l403 387l41 -39zM268 459l238 -361l-41 -37l-404 388v20l404 387l41 -39z" />
    <glyph glyph-name="logicalnot" unicode="&#xac;" horiz-adv-x="1034" 
d="M950 571h-866v113h866v-113z" />
    <glyph glyph-name="minus" unicode="&#xad;" horiz-adv-x="1034" 
d="M950 571h-866v113h866v-113z" />
    <glyph glyph-name="registered" unicode="&#xae;" horiz-adv-x="770" 
d="M385 719q-132 0 -220.5 88.5t-88.5 220.5t88.5 220.5t220.5 88.5t220.5 -88.5t88.5 -220.5t-88.5 -220.5t-220.5 -88.5zM385 752q116 0 193 79t77 197t-77 197.5t-193 79.5t-193 -79.5t-77 -197.5t77 -197t193 -79zM524 1114q0 -65 -86 -80v-10q52 -8 66 -55
q15 -41 28 -54q15 -15 41 -18v-20h-69q-28 0 -43 12.5t-27 44.5l-18 47q-6 18 -17 24.5t-34 6.5h-11v-101l49 -14v-20h-180v20l53 14v244l-53 14v23h189q54 0 83 -22.5t29 -55.5zM444 1102q0 61 -61 61l-29 2v-127h25q32 0 48.5 17.5t16.5 46.5z" />
    <glyph glyph-name="macron" unicode="&#xaf;" horiz-adv-x="655" 
d="M598 1217v-113h-541v113h541z" />
    <glyph glyph-name="degree" unicode="&#xb0;" horiz-adv-x="786" 
d="M709 1030q0 -122 -86.5 -215.5t-235.5 -93.5q-147 0 -228 90t-81 217q0 122 87 214.5t236 92.5q148 0 228 -88.5t80 -216.5zM547 1030q0 115 -41.5 184.5t-114.5 69.5q-70 0 -110.5 -70.5t-40.5 -187.5q0 -114 42.5 -184t112.5 -70q73 0 112.5 70t39.5 188z" />
    <glyph glyph-name="plusminus" unicode="&#xb1;" 
d="M51 -410v2048h922v-2048h-922z" />
    <glyph glyph-name="twosuperior" unicode="&#xb2;" 
d="M51 -410v2048h922v-2048h-922z" />
    <glyph glyph-name="threesuperior" unicode="&#xb3;" 
d="M51 -410v2048h922v-2048h-922z" />
    <glyph glyph-name="acute" unicode="&#xb4;" horiz-adv-x="487" 
d="M373 1444q35 -23 39 -66t-25 -84q-16 -23 -48 -56.5t-60 -59.5t-77.5 -71.5t-74.5 -68.5l-25 17q86 267 129 342q25 40 65.5 54t76.5 -7z" />
    <glyph glyph-name="mu" unicode="&#xb5;" horiz-adv-x="1034" 
d="M586 627l288 -293l-77 -74l-281 293l-280 -293l-78 74l288 293l-286 293l76 71l280 -291l281 291l75 -71z" />
    <glyph glyph-name="paragraph" unicode="&#xb6;" horiz-adv-x="1482" 
d="M1219 -98l225 -37v-35h-473q-210 0 -374 56.5t-270 160t-161 245.5t-55 316q0 173 59.5 316.5t169.5 246t274.5 159t368.5 56.5h461v-32l-225 -39v-1413zM952 1319v-1421l185 4v1413z" />
    <glyph glyph-name="periodcentered" unicode="&#xb7;" horiz-adv-x="452" 
d="M360 651q0 -57 -38.5 -96t-94.5 -39t-95.5 39t-39.5 96q0 55 39.5 94t95.5 39q55 0 94 -39t39 -94z" />
    <glyph glyph-name="cedilla" unicode="&#xb8;" horiz-adv-x="577" 
d="M360 -330q0 -87 -65.5 -143.5t-167.5 -56.5q-72 0 -116 31t-44 77q0 33 19 53.5t49 20.5q31 0 47 -20t16 -50q0 -32 -24 -59q23 -10 53 -10q44 0 72 31.5t28 86.5q0 57 -30.5 90t-83.5 33q-31 0 -64 -10l-26 31l370 319l33 -41l-231 -198q78 -15 121.5 -64t43.5 -121z
" />
    <glyph glyph-name="onesuperior" unicode="&#xb9;" 
d="M51 -410v2048h922v-2048h-922z" />
    <glyph glyph-name="ordmasculine" unicode="&#xba;" horiz-adv-x="808" 
d="M752 989q0 -92 -39.5 -169.5t-123 -128t-196.5 -50.5q-165 0 -250.5 98t-85.5 250q0 142 95.5 244t261.5 102q112 0 190 -47.5t113 -124t35 -174.5zM561 989q0 301 -160 301q-77 0 -116 -78.5t-39 -222.5t40.5 -222.5t119.5 -78.5q155 0 155 301z" />
    <glyph glyph-name="guillemotright" unicode="&#xbb;" horiz-adv-x="976" 
d="M915 449l-401 -388l-43 37l238 361l-238 358l43 39l401 -387v-20zM553 449l-401 -388l-43 37l237 361l-237 358l43 39l401 -387v-20z" />
    <glyph glyph-name="onequarter" unicode="&#xbc;" 
d="M51 -410v2048h922v-2048h-922z" />
    <glyph glyph-name="onehalf" unicode="&#xbd;" 
d="M51 -410v2048h922v-2048h-922z" />
    <glyph glyph-name="threequarters" unicode="&#xbe;" 
d="M51 -410v2048h922v-2048h-922z" />
    <glyph glyph-name="questiondown" unicode="&#xbf;" horiz-adv-x="778" 
d="M584 719q0 -55 -39 -94t-94 -39q-57 0 -96.5 38.5t-39.5 94.5t39.5 94.5t96.5 38.5q55 0 94 -39t39 -94zM770 -293q0 -98 -101 -159.5t-249 -61.5q-163 0 -270 94t-107 230q0 98 57.5 170t180.5 135q107 54 147.5 91t40.5 87q0 43 -34 71.5t-85 28.5q-47 0 -102 -10
l-6 23q62 59 174 59q102 0 169.5 -55t67.5 -144q0 -85 -55 -152.5t-176 -138.5q-100 -59 -143 -112t-43 -131q0 -79 52 -132t134 -53q74 0 123 43q-33 64 -33 119q0 59 35 97t92 38q55 0 93 -39t38 -98z" />
    <glyph glyph-name="Agrave" unicode="&#xc0;" horiz-adv-x="1300" 
d="M678 1436l-27 -17q-21 20 -73.5 68t-78 72.5t-57.5 58.5t-49 57q-29 41 -24.5 84t39.5 66q36 21 76.5 7t64.5 -54q7 -12 13.5 -25.5t14 -31.5t14 -33t15 -38.5t13.5 -38.5t15 -43t14.5 -42t15 -46t14.5 -44zM1163 88l166 -53v-35h-616v35l182 43l-137 381h-406l-133 -369
l141 -55v-35h-395v35l144 61l477 1221h112zM731 530l-176 488h-4l-174 -488h354z" />
    <glyph glyph-name="Aacute" unicode="&#xc1;" horiz-adv-x="1300" 
d="M834 1825q35 -23 39 -66t-25 -84q-16 -23 -48 -56.5t-60 -59.5t-77.5 -71.5t-74.5 -68.5l-25 17q86 267 129 342q25 40 65.5 54t76.5 -7zM1163 88l166 -53v-35h-616v35l182 43l-137 381h-406l-133 -369l141 -55v-35h-395v35l144 61l477 1221h112zM731 530l-176 488h-4
l-174 -488h354z" />
    <glyph glyph-name="Acircumflex" unicode="&#xc2;" horiz-adv-x="1300" 
d="M639 1552l-248 -176l-29 25l265 368h37l247 -368l-26 -25zM1167 88l166 -53v-35h-616v35l182 43l-137 381h-406l-133 -369l142 -55v-35h-396v35l144 61l477 1221h112zM735 530l-176 488h-4l-174 -488h354z" />
    <glyph glyph-name="Atilde" unicode="&#xc3;" horiz-adv-x="1300" 
d="M344 1462q19 123 63 178.5t123 55.5q58 0 152 -39t133 -39q70 0 107 92l34 -12q-12 -125 -54.5 -181.5t-121.5 -56.5q-59 0 -157 40t-138 40q-68 0 -104 -90zM1163 88l166 -53v-35h-616v35l182 43l-137 381h-406l-133 -369l141 -55v-35h-395v35l144 61l477 1221h112z
M731 530l-176 488h-4l-174 -488h354z" />
    <glyph glyph-name="Adieresis" unicode="&#xc4;" horiz-adv-x="1300" 
d="M838 1491q-52 0 -86.5 35t-34.5 88q0 54 39 94.5t96 40.5q52 0 85.5 -34.5t33.5 -88.5t-38.5 -94.5t-94.5 -40.5zM467 1491q-53 0 -87 35t-34 88q0 54 39 94.5t96 40.5q52 0 85.5 -34.5t33.5 -88.5t-38.5 -94.5t-94.5 -40.5zM1163 88l166 -53v-35h-616v35l182 43
l-137 381h-406l-133 -369l141 -55v-35h-395v35l144 61l477 1221h112zM731 530l-176 488h-4l-174 -488h354z" />
    <glyph glyph-name="Aring" unicode="&#xc5;" horiz-adv-x="1300" 
d="M1163 88l166 -53v-35h-616v35l182 43l-137 381h-406l-133 -369l141 -55v-35h-395v35l144 61l471 1204q-65 18 -100.5 68.5t-35.5 116.5q0 75 57 131.5t148 56.5q89 0 141 -54t52 -134q0 -60 -37 -111t-100 -71zM557 1483q0 -69 22.5 -106.5t65.5 -37.5q82 0 82 146
q0 143 -86 143q-84 0 -84 -145zM551 1018l-174 -488h354l-176 488h-4z" />
    <glyph glyph-name="AE" unicode="&#xc6;" horiz-adv-x="1916" 
d="M461 514l-268 -424l143 -55v-35h-406v35l142 61l759 1123l-186 51v35h1081l39 -396l-28 -12l-160 199q-33 40 -52 60.5t-48 40t-63.5 26.5t-84.5 8l-225 4v-545h90q89 0 132.5 38t76.5 140l20 68h37v-561h-37l-20 63q-31 101 -76 140.5t-133 39.5h-90v-546l305 6
q83 1 130.5 28.5t96.5 92.5l174 221l29 -8l-47 -412h-1135v35l191 43v436h-387zM848 584v532h-4l-338 -532h342z" />
    <glyph glyph-name="Ccedilla" unicode="&#xc7;" horiz-adv-x="1357" 
d="M375 674q0 -293 130 -459t339 -166q83 0 153 23l238 307l25 -8l-41 -308q-178 -80 -338 -92l-142 -116q78 -15 122 -64t44 -121q0 -87 -65 -143.5t-166 -56.5q-73 0 -117.5 31t-44.5 77q0 32 19.5 53t48.5 21q32 0 48.5 -20t16.5 -50q0 -32 -24 -59q23 -10 51 -10
q45 0 72.5 31t27.5 87q0 57 -31 90t-84 33q-31 0 -61 -10l-29 31l230 194q-322 0 -515.5 181t-193.5 489q0 188 90.5 347t254.5 254t366 95q81 0 165.5 -16.5t141.5 -46.5l80 69h24l23 -467l-41 -4q-179 396 -453 396q-70 0 -132.5 -33.5t-115.5 -101.5t-84.5 -186
t-31.5 -271z" />
    <glyph glyph-name="Egrave" unicode="&#xc8;" horiz-adv-x="1325" 
d="M756 1436l-27 -17q-21 20 -73.5 68t-78 72.5t-57.5 58.5t-49 57q-29 41 -25 84t39 66q35 21 77 7t65 -54q7 -12 13.5 -25.5t14 -31.5t14 -33t15 -38.5t13.5 -38.5t15 -43t14.5 -42t15 -46t14.5 -44zM1135 1305l39 -396l-29 -12l-160 199q-33 40 -52 60.5t-48 40
t-63.5 26.5t-84.5 8l-225 4v-545h90q89 0 132.5 38t76.5 140l20 68h37v-561h-37l-20 63q-33 102 -77 141t-132 39h-90v-546l305 6q83 1 129.5 28.5t97.5 92.5l173 221l30 -8l-47 -412h-1134v35l190 43v1149l-190 43v35h1069z" />
    <glyph glyph-name="Eacute" unicode="&#xc9;" horiz-adv-x="1325" 
d="M862 1825q35 -23 39.5 -66t-24.5 -84q-16 -23 -48 -56t-61 -60t-77.5 -71.5t-74.5 -68.5l-24 17q86 267 129 342q25 40 65 54t76 -7zM1135 1305l39 -396l-29 -12l-160 199q-33 40 -52 60.5t-48 40t-63.5 26.5t-84.5 8l-225 4v-545h90q89 0 132.5 38t76.5 140l20 68h37
v-561h-37l-20 63q-33 102 -77 141t-132 39h-90v-546l305 6q83 1 129.5 28.5t97.5 92.5l173 221l30 -8l-47 -412h-1134v35l190 43v1149l-190 43v35h1069z" />
    <glyph glyph-name="Ecircumflex" unicode="&#xca;" horiz-adv-x="1325" 
d="M672 1589l-248 -176l-29 25l264 368h37l248 -368l-26 -25zM1135 1305l39 -396l-29 -12l-160 199q-33 40 -52 60.5t-48 40t-63.5 26.5t-84.5 8l-225 4v-545h90q89 0 132.5 38t76.5 140l20 68h37v-561h-37l-20 63q-33 102 -77 141t-132 39h-90v-546l305 6q83 1 129.5 28.5
t97.5 92.5l173 221l30 -8l-47 -412h-1134v35l190 43v1149l-190 43v35h1069z" />
    <glyph glyph-name="Edieresis" unicode="&#xcb;" horiz-adv-x="1325" 
d="M844 1491q-52 0 -86.5 35t-34.5 88q0 54 39 94.5t96 40.5q52 0 85.5 -34.5t33.5 -88.5t-38.5 -94.5t-94.5 -40.5zM473 1491q-53 0 -87 35t-34 88q0 54 39 94.5t96 40.5q52 0 85.5 -34.5t33.5 -88.5t-38.5 -94.5t-94.5 -40.5zM1135 1305l39 -396l-29 -12l-160 199
q-33 40 -52 60.5t-48 40t-63.5 26.5t-84.5 8l-225 4v-545h90q89 0 132.5 38t76.5 140l20 68h37v-561h-37l-20 63q-33 102 -77 141t-132 39h-90v-546l305 6q83 1 129.5 28.5t97.5 92.5l173 221l30 -8l-47 -412h-1134v35l190 43v1149l-190 43v35h1069z" />
    <glyph glyph-name="Igrave" unicode="&#xcc;" horiz-adv-x="819" 
d="M492 1436l-27 -17q-21 20 -73.5 68t-78 72.5t-57.5 58.5t-49 57q-29 41 -25 84t39 66q36 21 76.5 7t64.5 -54q39 -68 130 -342zM539 78l192 -43v-35h-645v35l195 43v1149l-195 43v35h645v-35l-192 -43v-1149z" />
    <glyph glyph-name="Iacute" unicode="&#xcd;" horiz-adv-x="819" 
d="M596 1825q35 -23 39 -66t-25 -84q-16 -23 -48 -56.5t-60 -59.5t-77.5 -71.5t-74.5 -68.5l-24 17q86 267 129 342q25 40 65 54t76 -7zM539 78l192 -43v-35h-645v35l195 43v1149l-195 43v35h645v-35l-192 -43v-1149z" />
    <glyph glyph-name="Icircumflex" unicode="&#xce;" horiz-adv-x="819" 
d="M416 1593l-248 -176l-29 25l264 368h37l248 -368l-26 -25zM539 78l192 -43v-35h-645v35l195 43v1149l-195 43v35h645v-35l-192 -43v-1149z" />
    <glyph glyph-name="Idieresis" unicode="&#xcf;" horiz-adv-x="819" 
d="M594 1491q-52 0 -86.5 35t-34.5 88q0 54 39 94.5t96 40.5q52 0 85.5 -34.5t33.5 -88.5t-38.5 -94.5t-94.5 -40.5zM223 1491q-53 0 -87 35t-34 88q0 54 39.5 94.5t96.5 40.5q52 0 85 -34.5t33 -88.5t-38.5 -94.5t-94.5 -40.5zM539 78l192 -43v-35h-645v35l195 43v1149
l-195 43v35h645v-35l-192 -43v-1149z" />
    <glyph glyph-name="Eth" unicode="&#xd0;" horiz-adv-x="1505" 
d="M1417 653q0 -138 -52.5 -258.5t-147 -207.5t-233 -137t-302.5 -50h-616v35l190 43v555h-174v82h174v512l-190 43v35h628q171 0 308.5 -50t228 -138t138.5 -206.5t48 -257.5zM1130 653q0 152 -35.5 264t-101 178.5t-150 99.5t-190.5 36l-141 4v-520h238v-82h-238v-561
l186 4q432 10 432 577z" />
    <glyph glyph-name="Ntilde" unicode="&#xd1;" horiz-adv-x="1525" 
d="M483 1462q19 123 63 178.5t124 55.5q58 0 151.5 -39t132.5 -39q70 0 107 92l35 -12q-12 -125 -54.5 -181.5t-121.5 -56.5q-59 0 -157 40t-138 40q-69 0 -105 -90zM256 100v1108l-162 62v35h406l159 -209l535 -680h12v788l-168 66v35h416v-35l-168 -66v-1216h-88l-160 209
l-690 870h-14v-967l168 -65v-35h-414v35z" />
    <glyph glyph-name="Ograve" unicode="&#xd2;" horiz-adv-x="1472" 
d="M770 1442l-27 -17q-21 20 -73.5 68t-78 72.5t-57.5 58.5t-49 57q-29 41 -24.5 84t39.5 66q36 21 76.5 7t64.5 -54q7 -12 13.5 -25.5t14 -31.5t14 -33t15 -38.5t13.5 -38.5t15 -43t14.5 -42t15 -46t14.5 -44zM1384 653q0 -139 -45.5 -263t-127.5 -218t-207 -148.5
t-275 -54.5q-156 0 -280 54.5t-202 149t-118.5 217t-40.5 263.5q0 139 45 262.5t127 217t206.5 148t274.5 54.5q157 0 281.5 -54.5t202 -148.5t118.5 -216.5t41 -262.5zM1098 653q0 152 -30.5 273t-83.5 197t-121 115.5t-146 39.5q-58 0 -108 -19.5t-94 -65.5t-75 -117
t-49 -178.5t-18 -244.5t20.5 -245.5t55 -179t84 -116.5t104.5 -65.5t119 -19.5q149 0 245.5 162.5t96.5 463.5z" />
    <glyph glyph-name="Oacute" unicode="&#xd3;" horiz-adv-x="1472" 
d="M938 1831q35 -23 39 -66t-25 -84q-16 -23 -48 -56.5t-60 -59.5t-77.5 -71.5t-74.5 -68.5l-24 17q86 267 129 342q25 40 65 54t76 -7zM1384 653q0 -139 -45.5 -263t-127.5 -218t-207 -148.5t-275 -54.5q-156 0 -280 54.5t-202 149t-118.5 217t-40.5 263.5q0 139 45 262.5
t127 217t206.5 148t274.5 54.5q157 0 281.5 -54.5t202 -148.5t118.5 -216.5t41 -262.5zM1098 653q0 152 -30.5 273t-83.5 197t-121 115.5t-146 39.5q-58 0 -108 -19.5t-94 -65.5t-75 -117t-49 -178.5t-18 -244.5t20.5 -245.5t55 -179t84 -116.5t104.5 -65.5t119 -19.5
q149 0 245.5 162.5t96.5 463.5z" />
    <glyph glyph-name="Ocircumflex" unicode="&#xd4;" horiz-adv-x="1472" 
d="M715 1593l-248 -176l-29 25l264 368h37l248 -368l-26 -25zM1384 653q0 -139 -45.5 -263t-127.5 -218t-207 -148.5t-275 -54.5q-156 0 -280 54.5t-202 149t-118.5 217t-40.5 263.5q0 139 45 262.5t127 217t206.5 148t274.5 54.5q157 0 281.5 -54.5t202 -148.5
t118.5 -216.5t41 -262.5zM1098 653q0 152 -30.5 273t-83.5 197t-121 115.5t-146 39.5q-58 0 -108 -19.5t-94 -65.5t-75 -117t-49 -178.5t-18 -244.5t20.5 -245.5t55 -179t84 -116.5t104.5 -65.5t119 -19.5q149 0 245.5 162.5t96.5 463.5z" />
    <glyph glyph-name="Otilde" unicode="&#xd5;" horiz-adv-x="1472" 
d="M428 1462q19 123 63 178.5t123 55.5q58 0 152 -39t133 -39q70 0 107 92l34 -12q-12 -125 -54.5 -181.5t-121.5 -56.5q-59 0 -157 40t-138 40q-68 0 -104 -90zM1384 653q0 -139 -45.5 -263t-127.5 -218t-207 -148.5t-275 -54.5q-156 0 -280 54.5t-202 149t-118.5 217
t-40.5 263.5q0 139 45 262.5t127 217t206.5 148t274.5 54.5q157 0 281.5 -54.5t202 -148.5t118.5 -216.5t41 -262.5zM1098 653q0 152 -30.5 273t-83.5 197t-121 115.5t-146 39.5q-58 0 -108 -19.5t-94 -65.5t-75 -117t-49 -178.5t-18 -244.5t20.5 -245.5t55 -179t84 -116.5
t104.5 -65.5t119 -19.5q149 0 245.5 162.5t96.5 463.5z" />
    <glyph glyph-name="Odieresis" unicode="&#xd6;" horiz-adv-x="1472" 
d="M895 1491q-52 0 -86.5 35t-34.5 88q0 54 39 94.5t96 40.5q52 0 85.5 -34.5t33.5 -88.5t-38.5 -94.5t-94.5 -40.5zM524 1491q-53 0 -87 35t-34 88q0 54 39.5 94.5t96.5 40.5q52 0 85 -34.5t33 -88.5t-38.5 -94.5t-94.5 -40.5zM1384 653q0 -139 -45.5 -263t-127.5 -218
t-207 -148.5t-275 -54.5q-156 0 -280 54.5t-202 149t-118.5 217t-40.5 263.5q0 139 45 262.5t127 217t206.5 148t274.5 54.5q157 0 281.5 -54.5t202 -148.5t118.5 -216.5t41 -262.5zM1098 653q0 152 -30.5 273t-83.5 197t-121 115.5t-146 39.5q-58 0 -108 -19.5t-94 -65.5
t-75 -117t-49 -178.5t-18 -244.5t20.5 -245.5t55 -179t84 -116.5t104.5 -65.5t119 -19.5q149 0 245.5 162.5t96.5 463.5z" />
    <glyph glyph-name="multiply" unicode="&#xd7;" horiz-adv-x="1034" 
d="M586 627l288 -293l-77 -74l-281 293l-280 -293l-78 74l288 293l-286 293l76 71l280 -291l281 291l75 -71z" />
    <glyph glyph-name="Oslash" unicode="&#xd8;" horiz-adv-x="1472" 
d="M1384 653q0 -139 -45.5 -263t-127.5 -218t-207 -148.5t-275 -54.5q-252 0 -414 137l-147 -167l-55 49l149 168q-174 189 -174 497q0 139 45 262.5t127 217t206.5 148t274.5 54.5q263 0 428 -149l136 153l53 -49l-135 -155q161 -182 161 -482zM414 330l618 700
q-51 122 -133.5 185t-181.5 63q-58 0 -108 -19.5t-94 -65.5t-75 -117t-49 -178.5t-18 -244.5q0 -185 41 -323zM1059 950q-617 -700 -619 -700q96 -223 316 -223q149 0 245.5 162.5t96.5 463.5q0 166 -39 297z" />
    <glyph glyph-name="Ugrave" unicode="&#xd9;" horiz-adv-x="1484" 
d="M924 1436l-27 -17q-21 20 -73.5 68t-78 72.5t-57.5 58.5t-49 57q-29 41 -25 84t39 66q35 21 77 7t65 -54q7 -12 13.5 -25.5t14 -31.5t14 -33t15 -38.5t13.5 -38.5t15 -43t14.5 -42t15 -46t14.5 -44zM1194 1208l-154 62v35h387v-35l-155 -62v-782q0 -208 -139.5 -333.5
t-360.5 -125.5q-257 0 -396.5 118t-139.5 355v787l-191 43v35h639v-35l-190 -43v-787q0 -187 89 -273.5t273 -86.5q165 0 251.5 102.5t86.5 274.5v751z" />
    <glyph glyph-name="Uacute" unicode="&#xda;" horiz-adv-x="1484" 
d="M1038 1825q35 -23 39.5 -66t-24.5 -84q-16 -23 -48 -56.5t-60 -59.5t-77.5 -71.5t-74.5 -68.5l-25 17q86 267 129 342q25 40 65 54t76 -7zM1194 1208l-154 62v35h387v-35l-155 -62v-782q0 -208 -139.5 -333.5t-360.5 -125.5q-257 0 -396.5 118t-139.5 355v787l-191 43v35
h639v-35l-190 -43v-787q0 -187 89 -273.5t273 -86.5q165 0 251.5 102.5t86.5 274.5v751z" />
    <glyph glyph-name="Ucircumflex" unicode="&#xdb;" horiz-adv-x="1484" 
d="M850 1593l-248 -176l-29 25l265 368h36l248 -368l-26 -25zM1194 1208l-154 62v35h387v-35l-155 -62v-782q0 -208 -139.5 -333.5t-360.5 -125.5q-257 0 -396.5 118t-139.5 355v787l-191 43v35h639v-35l-190 -43v-787q0 -187 89 -273.5t273 -86.5q165 0 251.5 102.5
t86.5 274.5v751z" />
    <glyph glyph-name="Udieresis" unicode="&#xdc;" horiz-adv-x="1484" 
d="M1020 1491q-52 0 -86.5 35t-34.5 88q0 54 39 94.5t96 40.5q52 0 85.5 -34.5t33.5 -88.5t-38.5 -94.5t-94.5 -40.5zM649 1491q-53 0 -87 35t-34 88q0 54 39.5 94.5t96.5 40.5q52 0 85 -34.5t33 -88.5t-38.5 -94.5t-94.5 -40.5zM1194 1208l-154 62v35h387v-35l-155 -62
v-782q0 -208 -139.5 -333.5t-360.5 -125.5q-257 0 -396.5 118t-139.5 355v787l-191 43v35h639v-35l-190 -43v-787q0 -187 89 -273.5t273 -86.5q165 0 251.5 102.5t86.5 274.5v751z" />
    <glyph glyph-name="Yacute" unicode="&#xdd;" horiz-adv-x="1300" 
d="M977 1825q35 -23 39 -66t-25 -84q-16 -23 -48 -56.5t-60 -59.5t-77.5 -71.5t-74.5 -68.5l-24 17q86 267 129 342q25 40 65 54t76 -7zM1178 1208l-377 -598v-524l196 -51v-35h-649v35l197 51v473l-383 651l-168 60v35h624v-35l-163 -49l297 -547l284 534l-137 62v35h428
v-35z" />
    <glyph glyph-name="Thorn" unicode="&#xde;" horiz-adv-x="1253" 
d="M1184 664q0 -75 -30.5 -144t-86 -123.5t-144 -87.5t-196.5 -33q-75 0 -215 17v-215l203 -43v-35h-649v35l190 43v1147l-190 45v35h649v-35l-203 -45v-209q110 18 197 18q122 0 215.5 -29t149 -81t83 -117t27.5 -143zM911 659q0 141 -68.5 222t-195.5 82q-110 0 -135 -5
v-602q18 -4 133 -4q130 1 198 80t68 227z" />
    <glyph glyph-name="germandbls" unicode="&#xdf;" horiz-adv-x="1208" 
d="M1159 305q0 -142 -90.5 -239t-232.5 -97q-126 0 -197.5 51.5t-71.5 129.5q0 48 31 82t78 34q79 0 105 -70t-13 -153q36 -16 76 -16q56 0 93.5 42t37.5 111q0 99 -89.5 207.5t-305.5 251.5v14q150 150 205 255t55 225q0 122 -63 203t-169 81q-84 0 -129 -62.5t-45 -209.5
v-1082l84 -34v-29h-432v29l129 43v745h-184v35l184 74v53q0 144 50.5 241.5t148.5 178.5q144 119 311 119q157 0 252.5 -95.5t95.5 -222.5q0 -197 -289 -416v-14q375 -236 375 -465z" />
    <glyph glyph-name="agrave" unicode="&#xe0;" horiz-adv-x="974" 
d="M575 1055l-26 -17q-21 20 -73.5 68t-78 72.5t-57.5 58.5t-49 57q-29 41 -25 84t39 66q36 21 76.5 7t64.5 -54q7 -12 13.5 -25.5t14 -31.5t14 -33t15 -38.5t13.5 -38.5t15 -43t14.5 -42t15 -46t14.5 -44zM819 674v-535q0 -53 35.5 -77t120.5 -23l4 -25q-117 -49 -221 -49
q-137 0 -148 139l-8 5q-142 -142 -295 -142q-107 0 -170 57.5t-63 151.5q0 135 143 213t385 94v172q0 98 -53.5 151.5t-161.5 53.5q-61 0 -125 -20q76 -61 76 -140q0 -46 -32.5 -80t-82.5 -34q-52 0 -83 34t-31 82q0 72 69.5 131.5t168.5 90t198 30.5q274 0 274 -280z
M602 141v289q-160 -4 -229.5 -54.5t-69.5 -139.5q0 -67 37.5 -105.5t99.5 -38.5q71 0 162 49z" />
    <glyph glyph-name="aacute" unicode="&#xe1;" horiz-adv-x="974" 
d="M668 1444q35 -23 39 -66t-25 -84q-16 -23 -48 -56.5t-60 -59.5t-77.5 -71.5t-74.5 -68.5l-25 17q86 267 129 342q25 40 65.5 54t76.5 -7zM819 674v-535q0 -53 35.5 -77t120.5 -23l4 -25q-117 -49 -221 -49q-137 0 -148 139l-8 5q-142 -142 -295 -142q-107 0 -170 57.5
t-63 151.5q0 135 143 213t385 94v172q0 98 -53.5 151.5t-161.5 53.5q-61 0 -125 -20q76 -61 76 -140q0 -46 -32.5 -80t-82.5 -34q-52 0 -83 34t-31 82q0 72 69.5 131.5t168.5 90t198 30.5q274 0 274 -280zM602 141v289q-160 -4 -229.5 -54.5t-69.5 -139.5q0 -67 37.5 -105.5
t99.5 -38.5q71 0 162 49z" />
    <glyph glyph-name="acircumflex" unicode="&#xe2;" horiz-adv-x="974" 
d="M498 1212l-248 -176l-29 25l264 369h37l248 -369l-27 -25zM819 674v-535q0 -53 35.5 -77t120.5 -23l4 -25q-117 -49 -221 -49q-137 0 -148 139l-8 5q-142 -142 -295 -142q-107 0 -170 57.5t-63 151.5q0 135 143 213t385 94v172q0 98 -53.5 151.5t-161.5 53.5
q-61 0 -125 -20q76 -61 76 -140q0 -46 -32.5 -80t-82.5 -34q-52 0 -83 34t-31 82q0 72 69.5 131.5t168.5 90t198 30.5q274 0 274 -280zM602 141v289q-160 -4 -229.5 -54.5t-69.5 -139.5q0 -67 37.5 -105.5t99.5 -38.5q71 0 162 49z" />
    <glyph glyph-name="atilde" unicode="&#xe3;" horiz-adv-x="974" 
d="M184 1081q19 123 63 178.5t124 55.5q58 0 151.5 -39t132.5 -39q70 0 107 92l35 -12q-12 -125 -54.5 -181.5t-121.5 -56.5q-59 0 -157 40t-138 40q-69 0 -105 -90zM819 674v-535q0 -53 35.5 -77t120.5 -23l4 -25q-117 -49 -221 -49q-137 0 -148 139l-8 5
q-142 -142 -295 -142q-107 0 -170 57.5t-63 151.5q0 135 143 213t385 94v172q0 98 -53.5 151.5t-161.5 53.5q-61 0 -125 -20q76 -61 76 -140q0 -46 -32.5 -80t-82.5 -34q-52 0 -83 34t-31 82q0 72 69.5 131.5t168.5 90t198 30.5q274 0 274 -280zM602 141v289
q-160 -4 -229.5 -54.5t-69.5 -139.5q0 -67 37.5 -105.5t99.5 -38.5q71 0 162 49z" />
    <glyph glyph-name="adieresis" unicode="&#xe4;" horiz-adv-x="974" 
d="M651 1110q-52 0 -86.5 35t-34.5 88q0 54 39.5 94.5t96.5 40.5q52 0 85 -34.5t33 -88.5t-38.5 -94.5t-94.5 -40.5zM281 1110q-53 0 -87 35t-34 88q0 54 39 94.5t96 40.5q52 0 85.5 -34.5t33.5 -88.5t-38.5 -94.5t-94.5 -40.5zM819 674v-535q0 -53 35.5 -77t120.5 -23
l4 -25q-117 -49 -221 -49q-137 0 -148 139l-8 5q-142 -142 -295 -142q-107 0 -170 57.5t-63 151.5q0 135 143 213t385 94v172q0 98 -53.5 151.5t-161.5 53.5q-61 0 -125 -20q76 -61 76 -140q0 -46 -32.5 -80t-82.5 -34q-52 0 -83 34t-31 82q0 72 69.5 131.5t168.5 90
t198 30.5q274 0 274 -280zM602 141v289q-160 -4 -229.5 -54.5t-69.5 -139.5q0 -67 37.5 -105.5t99.5 -38.5q71 0 162 49z" />
    <glyph glyph-name="aring" unicode="&#xe5;" horiz-adv-x="974" 
d="M688 1219q0 -75 -57 -134t-148 -59q-89 0 -140.5 56.5t-51.5 136.5q0 74 56.5 131t146.5 57t142 -54t52 -134zM819 674v-535q0 -53 35.5 -77t120.5 -23l4 -25q-117 -49 -221 -49q-137 0 -148 139l-8 5q-142 -142 -295 -142q-107 0 -170 57.5t-63 151.5q0 135 143 213
t385 94v172q0 98 -53.5 151.5t-161.5 53.5q-61 0 -125 -20q76 -61 76 -140q0 -46 -32.5 -80t-82.5 -34q-52 0 -83 34t-31 82q0 72 69.5 131.5t168.5 90t198 30.5q274 0 274 -280zM573 1219q0 143 -88 143q-82 0 -82 -145q0 -69 22.5 -106.5t63.5 -37.5q84 0 84 146zM602 141
v289q-160 -4 -229.5 -54.5t-69.5 -139.5q0 -67 37.5 -105.5t99.5 -38.5q71 0 162 49z" />
    <glyph glyph-name="ae" unicode="&#xe6;" horiz-adv-x="1523" 
d="M1458 532h-637q0 -208 70 -319t235 -111q132 0 310 68l12 -27q-208 -176 -395 -176q-124 0 -219.5 49t-153.5 138l-10 2q-185 -189 -351 -189q-114 0 -179.5 57.5t-65.5 153.5q0 135 143 213t385 94v170q0 205 -215 205q-59 0 -123 -18q35 -30 54.5 -68.5t19.5 -73.5
q0 -46 -32 -80t-81 -34q-53 0 -84.5 35.5t-31.5 83.5q0 72 69.5 131.5t169 89.5t199.5 30q166 0 225 -112q121 112 287 112q197 0 299 -116.5t100 -307.5zM1044 901q-91 0 -152.5 -87t-70.5 -228l408 18q-13 297 -185 297zM662 184q-57 108 -60 246q-301 -8 -301 -194
q0 -66 38 -104t101 -38q103 0 222 90z" />
    <glyph glyph-name="ccedilla" unicode="&#xe7;" horiz-adv-x="954" 
d="M297 494q0 -174 87 -283t226 -109q119 0 285 66l10 -25q-90 -93 -196 -137l-179 -151q78 -15 122 -64t44 -121q0 -87 -65 -143.5t-166 -56.5q-72 0 -117 31.5t-45 76.5q0 32 19.5 53t50.5 21t47 -20t16 -50q0 -32 -24 -59q23 -10 53 -10q44 0 72 31.5t28 86.5
q0 57 -31.5 90t-82.5 33q-31 0 -64 -10l-27 31l230 196q-40 -4 -62 -4q-200 0 -331 132.5t-131 344.5q0 141 64.5 257.5t183 185.5t266.5 69q141 0 229 -59t88 -145q0 -58 -35 -98t-88 -40q-60 0 -96.5 40t-36.5 94q0 77 49 137q-25 6 -74 6q-66 0 -122 -23t-101 -69
t-70.5 -124t-25.5 -181z" />
    <glyph glyph-name="egrave" unicode="&#xe8;" horiz-adv-x="1001" 
d="M594 1061l-27 -17q-21 20 -73.5 68t-78 72.5t-57.5 58.5t-49 57q-29 41 -24.5 84t39.5 66q36 21 76.5 7t64.5 -54q7 -12 13.5 -25.5t14 -31.5t14 -33t15 -38.5t13.5 -38.5t15 -43t14.5 -42t15 -46t14.5 -44zM936 532h-637q0 -208 70 -319t235 -111q129 0 309 66l13 -25
q-202 -176 -396 -176q-210 0 -337 131.5t-127 345.5q0 143 65.5 261.5t173.5 184.5t232 66q195 0 298 -117.5t101 -306.5zM301 584l406 18q-12 297 -185 297q-90 0 -152 -87t-69 -228z" />
    <glyph glyph-name="eacute" unicode="&#xe9;" horiz-adv-x="1001" 
d="M713 1450q35 -23 39 -66t-25 -84q-16 -23 -48 -56.5t-60 -59.5t-77.5 -71.5t-74.5 -68.5l-25 17q86 267 129 342q25 40 65.5 54t76.5 -7zM936 532h-637q0 -208 70 -319t235 -111q129 0 309 66l13 -25q-202 -176 -396 -176q-210 0 -337 131.5t-127 345.5q0 143 65.5 261.5
t173.5 184.5t232 66q195 0 298 -117.5t101 -306.5zM301 584l406 18q-12 297 -185 297q-90 0 -152 -87t-69 -228z" />
    <glyph glyph-name="ecircumflex" unicode="&#xea;" horiz-adv-x="1001" 
d="M532 1212l-247 -176l-29 25l264 369h37l248 -369l-27 -25zM936 532h-637q0 -208 70 -319t235 -111q129 0 309 66l13 -25q-202 -176 -396 -176q-210 0 -337 131.5t-127 345.5q0 143 65.5 261.5t173.5 184.5t232 66q195 0 298 -117.5t101 -306.5zM301 584l406 18
q-12 297 -185 297q-90 0 -152 -87t-69 -228z" />
    <glyph glyph-name="edieresis" unicode="&#xeb;" horiz-adv-x="1001" 
d="M717 1110q-52 0 -86.5 35t-34.5 88q0 54 39 94.5t96 40.5q52 0 85.5 -34.5t33.5 -88.5t-38.5 -94.5t-94.5 -40.5zM346 1110q-53 0 -87 35t-34 88q0 54 39 94.5t96 40.5q52 0 85.5 -34.5t33.5 -88.5t-38.5 -94.5t-94.5 -40.5zM936 532h-637q0 -208 70 -319t235 -111
q129 0 309 66l13 -25q-202 -176 -396 -176q-210 0 -337 131.5t-127 345.5q0 143 65.5 261.5t173.5 184.5t232 66q195 0 298 -117.5t101 -306.5zM301 584l406 18q-12 297 -185 297q-90 0 -152 -87t-69 -228z" />
    <glyph glyph-name="igrave" unicode="&#xec;" horiz-adv-x="573" 
d="M371 1055l-27 -17q-21 20 -73.5 68t-78 72.5t-57.5 58.5t-49 57q-29 41 -25 84t39 66q35 21 77 7t65 -54q7 -12 13.5 -25.5t14 -31.5t14 -33t15 -38.5t13.5 -38.5t15 -43t14.5 -42t15 -46t14.5 -44zM188 72v696l-127 92v21l338 80l9 -7v-882l129 -43v-29h-484v29z" />
    <glyph glyph-name="iacute" unicode="&#xed;" horiz-adv-x="573" 
d="M467 1444q35 -23 39 -66t-25 -84q-16 -23 -48 -56.5t-60 -59.5t-77.5 -71.5t-74.5 -68.5l-24 17q86 267 129 342q25 40 65 54t76 -7zM188 72v696l-127 92v21l338 80l9 -7v-882l129 -43v-29h-484v29z" />
    <glyph glyph-name="icircumflex" unicode="&#xee;" horiz-adv-x="573" 
d="M283 1212l-248 -176l-29 25l264 369h37l248 -369l-27 -25zM188 72v696l-127 92v21l338 80l9 -7v-882l129 -43v-29h-484v29z" />
    <glyph glyph-name="idieresis" unicode="&#xef;" horiz-adv-x="573" 
d="M467 1110q-52 0 -86.5 35t-34.5 88q0 54 39 94.5t96 40.5q52 0 85.5 -34.5t33.5 -88.5t-38.5 -94.5t-94.5 -40.5zM96 1110q-53 0 -87 35t-34 88q0 54 39.5 94.5t96.5 40.5q52 0 85 -34.5t33 -88.5t-38.5 -94.5t-94.5 -40.5zM188 72v696l-127 92v21l338 80l9 -7v-882
l129 -43v-29h-484v29z" />
    <glyph glyph-name="eth" unicode="&#xf0;" horiz-adv-x="1091" 
d="M1032 592q0 -177 -62.5 -318.5t-179 -223t-268.5 -81.5q-212 0 -334 138t-122 354q0 210 128 352.5t310 142.5q134 0 229 -75l6 4q-52 175 -149 309l-205 -88l-29 74l185 77q-114 135 -283 228l16 35q236 -64 408 -201l207 86l29 -70l-170 -73q137 -131 210.5 -303.5
t73.5 -366.5zM788 514q0 168 -32 307q-78 37 -172 37q-121 0 -198 -109t-77 -303q0 -192 73.5 -301.5t186.5 -109.5q219 0 219 479z" />
    <glyph glyph-name="ntilde" unicode="&#xf1;" horiz-adv-x="1146" 
d="M270 1081q19 123 63 178.5t124 55.5q58 0 151.5 -39t132.5 -39q70 0 107 92l35 -12q-12 -125 -54.5 -181.5t-121.5 -56.5q-59 0 -157 40t-138 40q-69 0 -105 -90zM997 672v-600l129 -43v-29h-462v29l114 43v516q0 105 -38.5 159t-129.5 54q-102 0 -207 -51v-678l115 -43
v-29h-463v29l129 43v696l-129 92v21l328 80l8 -7l-4 -166l8 -4q181 172 350 172q66 0 116.5 -23.5t79 -64.5t42.5 -90t14 -106z" />
    <glyph glyph-name="ograve" unicode="&#xf2;" horiz-adv-x="1085" 
d="M625 1061l-27 -17q-21 20 -73.5 68t-78 72.5t-57.5 58.5t-49 57q-29 41 -25 84t39 66q35 21 77 7t65 -54q7 -12 13.5 -25.5t14 -31.5t14 -33t15 -38.5t13.5 -38.5t15 -43t14.5 -42t15 -46t14.5 -44zM1018 465q0 -96 -32.5 -185t-92.5 -159t-154.5 -112t-208.5 -42
q-150 0 -257 68t-157 178.5t-50 249.5q0 96 33 184t93.5 157t155.5 110.5t209 41.5q113 0 202.5 -38.5t145 -106t84.5 -155.5t29 -191zM778 465q0 207 -62.5 320.5t-176.5 113.5q-108 0 -170 -115.5t-62 -324.5q0 -205 65 -319.5t175 -114.5q112 0 171.5 114t59.5 326z" />
    <glyph glyph-name="oacute" unicode="&#xf3;" horiz-adv-x="1085" 
d="M727 1450q35 -23 39 -66t-25 -84q-16 -23 -48 -56.5t-60 -59.5t-77.5 -71.5t-74.5 -68.5l-24 17q86 267 129 342q25 40 65 54t76 -7zM1018 465q0 -96 -32.5 -185t-92.5 -159t-154.5 -112t-208.5 -42q-150 0 -257 68t-157 178.5t-50 249.5q0 96 33 184t93.5 157
t155.5 110.5t209 41.5q113 0 202.5 -38.5t145 -106t84.5 -155.5t29 -191zM778 465q0 207 -62.5 320.5t-176.5 113.5q-108 0 -170 -115.5t-62 -324.5q0 -205 65 -319.5t175 -114.5q112 0 171.5 114t59.5 326z" />
    <glyph glyph-name="ocircumflex" unicode="&#xf4;" horiz-adv-x="1085" 
d="M543 1212l-248 -176l-29 25l264 369h37l248 -369l-27 -25zM1018 465q0 -96 -32.5 -185t-92.5 -159t-154.5 -112t-208.5 -42q-150 0 -257 68t-157 178.5t-50 249.5q0 96 33 184t93.5 157t155.5 110.5t209 41.5q113 0 202.5 -38.5t145 -106t84.5 -155.5t29 -191zM778 465
q0 207 -62.5 320.5t-176.5 113.5q-108 0 -170 -115.5t-62 -324.5q0 -205 65 -319.5t175 -114.5q112 0 171.5 114t59.5 326z" />
    <glyph glyph-name="otilde" unicode="&#xf5;" horiz-adv-x="1085" 
d="M233 1081q19 123 63 178.5t124 55.5q58 0 152 -39t133 -39q69 0 106 92l35 -12q-12 -125 -54.5 -181.5t-121.5 -56.5q-59 0 -157 40t-138 40q-69 0 -105 -90zM1018 465q0 -96 -32.5 -185t-92.5 -159t-154.5 -112t-208.5 -42q-150 0 -257 68t-157 178.5t-50 249.5
q0 96 33 184t93.5 157t155.5 110.5t209 41.5q113 0 202.5 -38.5t145 -106t84.5 -155.5t29 -191zM778 465q0 207 -62.5 320.5t-176.5 113.5q-108 0 -170 -115.5t-62 -324.5q0 -205 65 -319.5t175 -114.5q112 0 171.5 114t59.5 326z" />
    <glyph glyph-name="odieresis" unicode="&#xf6;" horiz-adv-x="1085" 
d="M725 1110q-52 0 -86.5 35t-34.5 88q0 54 39 94.5t96 40.5q52 0 85.5 -34.5t33.5 -88.5t-38.5 -94.5t-94.5 -40.5zM354 1110q-53 0 -87 35t-34 88q0 54 39.5 94.5t96.5 40.5q52 0 85 -34.5t33 -88.5t-38.5 -94.5t-94.5 -40.5zM1018 465q0 -96 -32.5 -185t-92.5 -159
t-154.5 -112t-208.5 -42q-150 0 -257 68t-157 178.5t-50 249.5q0 96 33 184t93.5 157t155.5 110.5t209 41.5q113 0 202.5 -38.5t145 -106t84.5 -155.5t29 -191zM778 465q0 207 -62.5 320.5t-176.5 113.5q-108 0 -170 -115.5t-62 -324.5q0 -205 65 -319.5t175 -114.5
q112 0 171.5 114t59.5 326z" />
    <glyph glyph-name="divide" unicode="&#xf7;" horiz-adv-x="1034" 
d="M518 1071q50 0 85.5 -35.5t35.5 -85.5q0 -51 -35.5 -87t-85.5 -36q-52 0 -87.5 36t-35.5 87q0 50 35.5 85.5t87.5 35.5zM950 575h-866v105h866v-105zM518 428q50 0 85.5 -36t35.5 -87t-35.5 -86t-85.5 -35q-52 0 -87.5 35t-35.5 86t35.5 87t87.5 36z" />
    <glyph glyph-name="oslash" unicode="&#xf8;" horiz-adv-x="1085" 
d="M899 819q119 -134 119 -354q0 -96 -32.5 -185t-92.5 -159t-154.5 -112t-208.5 -42q-170 0 -288 88l-101 -114l-55 45l102 118q-122 134 -122 359q0 96 33 184t93.5 157t155.5 110.5t209 41.5q172 0 287 -88l98 115l55 -47q-71 -84 -98 -117zM735 741q-60 158 -196 158
q-108 0 -170 -115.5t-62 -324.5q0 -108 19 -195zM778 465q0 93 -18 192q0 1 -102.5 -118t-205.5 -238l-102 -119q31 -76 81.5 -116.5t115.5 -40.5q112 0 171.5 114t59.5 326z" />
    <glyph glyph-name="ugrave" unicode="&#xf9;" horiz-adv-x="1128" 
d="M633 1055l-27 -17q-21 20 -73.5 68t-78 72.5t-57.5 58.5t-49 57q-29 41 -25 84t39 66q35 21 77 7t65 -54q7 -12 13.5 -25.5t14 -31.5t14 -33t15 -38.5t13.5 -38.5t15 -43t14.5 -42t15 -46t14.5 -44zM975 125l129 -55v-21l-328 -82l-8 4l4 162l-8 6q-181 -172 -348 -172
q-67 0 -117.5 23.5t-79.5 65t-43 90.5t-14 106v532l-125 76v21l336 80l8 -7v-618q0 -106 39 -159.5t131 -53.5q99 0 205 49v612l-125 76v21l336 80l8 -7v-829z" />
    <glyph glyph-name="uacute" unicode="&#xfa;" horiz-adv-x="1128" 
d="M743 1444q35 -23 39.5 -66t-24.5 -84q-16 -23 -48 -56.5t-60 -59.5t-77.5 -71.5t-74.5 -68.5l-25 17q86 267 129 342q25 40 65 54t76 -7zM975 125l129 -55v-21l-328 -82l-8 4l4 162l-8 6q-181 -172 -348 -172q-67 0 -117.5 23.5t-79.5 65t-43 90.5t-14 106v532l-125 76
v21l336 80l8 -7v-618q0 -106 39 -159.5t131 -53.5q99 0 205 49v612l-125 76v21l336 80l8 -7v-829z" />
    <glyph glyph-name="ucircumflex" unicode="&#xfb;" horiz-adv-x="1128" 
d="M559 1212l-248 -176l-28 25l264 369h37l247 -369l-26 -25zM975 125l129 -55v-21l-328 -82l-8 4l4 162l-8 6q-181 -172 -348 -172q-67 0 -117.5 23.5t-79.5 65t-43 90.5t-14 106v532l-125 76v21l336 80l8 -7v-618q0 -106 39 -159.5t131 -53.5q99 0 205 49v612l-125 76v21
l336 80l8 -7v-829z" />
    <glyph glyph-name="udieresis" unicode="&#xfc;" horiz-adv-x="1128" 
d="M727 1110q-52 0 -86.5 35t-34.5 88q0 54 39 94.5t96 40.5q52 0 85.5 -34.5t33.5 -88.5t-38.5 -94.5t-94.5 -40.5zM356 1110q-53 0 -86.5 35t-33.5 88q0 54 39 94.5t96 40.5q52 0 85 -34.5t33 -88.5t-38.5 -94.5t-94.5 -40.5zM975 125l129 -55v-21l-328 -82l-8 4l4 162
l-8 6q-181 -172 -348 -172q-67 0 -117.5 23.5t-79.5 65t-43 90.5t-14 106v532l-125 76v21l336 80l8 -7v-618q0 -106 39 -159.5t131 -53.5q99 0 205 49v612l-125 76v21l336 80l8 -7v-829z" />
    <glyph glyph-name="yacute" unicode="&#xfd;" horiz-adv-x="1007" 
d="M760 1444q35 -23 39 -66t-25 -84q-16 -23 -48 -56.5t-60 -59.5t-77.5 -71.5t-74.5 -68.5l-25 17q86 267 129 342q25 40 65.5 54t76.5 -7zM903 829l-358 -892q-77 -190 -154 -276.5t-172 -86.5q-77 0 -118.5 37.5t-41.5 91.5q0 47 36.5 82t86.5 35q49 0 84 -24t76 -75
q63 69 113 175l34 77l-362 875l-125 49v27h500v-27l-131 -49l221 -600h10l201 586l-119 63v27h352v-27z" />
    <glyph glyph-name="thorn" unicode="&#xfe;" horiz-adv-x="1105" 
d="M1032 489q0 -138 -61 -255.5t-182.5 -192t-280.5 -74.5q-69 0 -152 17v-334l150 -49v-27h-498v27l129 49v1659l-143 92v20l354 97l8 -7v-686l9 -6q131 135 301 135q158 0 262 -128t104 -337zM801 436q0 179 -72.5 278t-202.5 99q-78 0 -170 -45v-637q90 -104 211 -104
q98 0 166 102.5t68 306.5z" />
    <glyph glyph-name="ydieresis" unicode="&#xff;" horiz-adv-x="1007" 
d="M750 1110q-52 0 -86.5 35t-34.5 88q0 54 39 94.5t96 40.5q52 0 85.5 -34.5t33.5 -88.5t-38.5 -94.5t-94.5 -40.5zM379 1110q-53 0 -87 35t-34 88q0 54 39 94.5t96 40.5q52 0 85.5 -34.5t33.5 -88.5t-38.5 -94.5t-94.5 -40.5zM903 829l-358 -892q-77 -190 -154 -276.5
t-172 -86.5q-77 0 -118.5 37.5t-41.5 91.5q0 47 36.5 82t86.5 35q49 0 84 -24t76 -75q63 69 113 175l34 77l-362 875l-125 49v27h500v-27l-131 -49l221 -600h10l201 586l-119 63v27h352v-27z" />
    <glyph glyph-name="Delta" 
d="M51 -410v2048h922v-2048h-922z" />
    <glyph glyph-name="NUL" horiz-adv-x="0" 
 />
    <glyph glyph-name="Omega" horiz-adv-x="1277" 
d="M1044 920h256v-103h-256v-745l154 -43v-29h-500v29l129 43v745h-395v-745l135 -43v-29h-483v29l129 43v745h-186v35l186 74v71q0 279 195 424q127 97 292 97q113 0 175.5 -41.5t78.5 -100.5q31 34 62 56q112 86 262 86q109 0 171 -50.5t62 -113.5q0 -55 -29.5 -87
t-84.5 -32q-62 0 -112 55t-79 158q-87 -34 -124.5 -115t-37.5 -243v-170zM432 920h395v92q0 126 33 211q-67 -6 -117 52.5t-59 176.5q-132 -25 -192 -123t-60 -293v-116z" />
    <glyph glyph-name="apple" horiz-adv-x="1421" 
d="M1319 -410h-426l-16 29h-334l-17 -29h-424v621q28 0 47 18.5t19 46.5q0 27 -19.5 46.5t-46.5 19.5v1135h205l62 161h684l59 -161h207v-1887zM819 1153v-352h31v160h78v28h-78v135h88v29h-119zM377 1153v-352h31v162h96v-162h31v352h-31v-162h-96v162h-31zM942 807
q16 -8 43 -8q64 0 64 73v281h-33v-281q0 -45 -33 -45q-19 0 -41 13v-33zM715 897l-33 64q47 44 47 86q0 25 -14.5 44t-40.5 19q-25 0 -41.5 -19t-16.5 -44q0 -9 1 -16.5t4.5 -16.5t6 -13.5t9 -16.5t8.5 -17q-47 -38 -47 -93q0 -34 18 -56.5t46 -22.5q35 0 55 49h2l24 -49
l23 16l-33 61q22 54 27 80l-27 6q-5 -21 -18 -61zM1071 662v-95h16v27l15 14l33 -41h18l-39 54l37 41h-21l-43 -50v50h-16zM999 598l21 -31h18l-24 35q20 7 20 31q0 10 -9.5 19.5t-23.5 9.5h-43v-95h17v31h24zM872 565q23 0 36.5 14t13.5 35q0 19 -14.5 34.5t-35.5 15.5
t-34 -15t-13 -35q0 -21 13 -35t34 -14zM758 616l-27 46h-18l37 -60v-35h16v35l37 60h-19zM395 662v-95h68v15h-51v26h45v15h-45v24h51v15h-68zM270 662v-95h17v66l51 -66h14v95h-16v-66l-51 66h-15zM494 662l30 -97h17l20 70h2l23 -70h16l29 97h-17l-20 -72h-2l-21 72h-16
l-23 -72h-2l-20 72h-16zM670 981q-25 48 -25 66q0 15 8.5 26.5t20.5 11.5t19 -11t7 -27q0 -31 -30 -66zM700 866q-5 -16 -15.5 -29.5t-20.5 -13.5q-15 0 -25 16.5t-10 39.5q0 37 30 67zM999 612h-24v35h22q21 0 21 -16q0 -7 -6 -13t-13 -6zM872 580q-13 0 -21.5 10t-8.5 24
q0 13 8.5 24t21.5 11t23 -11t10 -24q0 -14 -10 -24t-23 -10z" />
    <glyph glyph-name="approxequal" horiz-adv-x="1824" 
d="M1044 920h435l172 41l8 -7v-882l129 -43v-29h-477v29l131 43v745h-398v-745l134 -43v-29h-480v29l129 43v745h-395v-745l135 -43v-29h-483v29l129 43v745h-186v35l186 74v71q0 279 195 424q127 97 292 97q122 0 182 -44t76 -110q21 26 66 59q133 95 293 95
q146 0 214 -57.5t68 -131.5q0 -55 -31.5 -88t-84.5 -33q-71 0 -119 63.5t-51 180.5q-138 -24 -203.5 -123.5t-65.5 -296.5v-112zM432 920h395v75q0 133 37 226q-70 -7 -121.5 52t-58.5 179q-132 -25 -192 -123t-60 -293v-116z" />
    <glyph glyph-name="greaterequal" 
d="M51 -410v2048h922v-2048h-922z" />
    <glyph glyph-name="infinity" 
d="M51 -410v2048h922v-2048h-922z" />
    <glyph glyph-name="integral" 
d="M51 -410v2048h922v-2048h-922z" />
    <glyph glyph-name="lessequal" 
d="M51 -410v2048h922v-2048h-922z" />
    <glyph glyph-name="lozenge" 
d="M915 1264v-295l54 -19v-20h-193v20l45 19v286h-8l-123 -325h-37l-131 325h-8v-280l51 -25v-20h-137v20l49 25v289l-49 18v23h178l23 -64l69 -182h4l68 182l21 64h178v-23zM369 1047q0 -60 -40.5 -94.5t-101.5 -34.5q-56 0 -110 20l-19 -23h-20l-6 144h24
q72 -115 140 -115q26 0 42.5 16t16.5 44q0 27 -20.5 41.5t-75.5 33.5q-57 17 -87 42.5t-30 72.5q0 53 39.5 86t95.5 33q41 0 90 -17l17 19h20l8 -127l-22 -2q-43 58 -70 80t-51 22q-23 0 -36 -15t-13 -40q0 -27 21.5 -43t74.5 -35q59 -20 86 -42.5t27 -65.5z" />
    <glyph glyph-name="nbspace" horiz-adv-x="225" 
 />
    <glyph glyph-name="notequal" 
d="M51 -410v2048h922v-2048h-922z" />
    <glyph glyph-name="partialdiff" 
d="M51 -410v2048h922v-2048h-922z" />
    <glyph glyph-name="pi" horiz-adv-x="1503" 
d="M1436 653q0 -140 -54.5 -266.5t-146 -218t-218 -145.5t-265.5 -54t-265.5 54t-218 145.5t-146 218t-54.5 266.5q0 139 54.5 265.5t146 217.5t218 145t265.5 54t265.5 -54t218 -145t146 -217.5t54.5 -265.5zM1368 653q0 167 -82.5 310t-224.5 227t-309 84
q-125 0 -239.5 -49.5t-197 -133t-131.5 -198.5t-49 -240q0 -127 49 -242.5t131.5 -199t197 -133t239.5 -49.5t239 49.5t196.5 133t131.5 199t49 242.5zM1079 793q0 -85 -69.5 -149t-182.5 -64q-54 0 -112 10v-225l106 -25v-33h-364v33l96 25v573l-96 29v30h360
q133 0 197.5 -58t64.5 -146zM909 795q0 146 -129 155q-39 4 -65 0v-317q27 0 67 4q62 3 94.5 44.5t32.5 113.5z" />
    <glyph glyph-name="product" 
d="M51 -410v2048h922v-2048h-922z" />
    <glyph glyph-name="radical" horiz-adv-x="1822" 
d="M1659 72l129 -43v-29h-483v29l137 43v745h-398v-745l134 -43v-29h-480v29l129 43v745h-395v-745l135 -43v-29h-483v29l129 43v745h-186v35l186 74v71q0 279 195 424q127 97 292 97q122 0 182 -44t76 -110q21 26 66 59q133 95 293 95q113 0 186 -39l148 41l8 -7v-1441z
M1044 920h398v294q-55 18 -90.5 79t-38.5 159q-138 -24 -203.5 -123.5t-65.5 -296.5v-112zM432 920h395v75q0 133 37 226q-70 -7 -121.5 52t-58.5 179q-132 -25 -192 -123t-60 -293v-116z" />
    <glyph glyph-name="summation" 
d="M51 -410v2048h922v-2048h-922z" />
    </font>
</defs>
</svg>
