<?xml version="1.0" encoding="utf-8"?>
<!-- Generator: Adobe Illustrator 24.0.2, SVG Export Plug-In . SVG Version: 6.00 Build 0)  -->
<svg version="1.1" id="Capa_1" xmlns="http://www.w3.org/2000/svg" xmlns:xlink="http://www.w3.org/1999/xlink" x="0px" y="0px"
	 viewBox="0 0 214 278" style="enable-background:new 0 0 214 278;" xml:space="preserve">
<style type="text/css">
	.st0{fill:#FFFFFF;}
</style>
<g>
	<path class="st0" d="M210.22,66.62v3.21h-67.38V2.44h3.21c3.37,0,6.58,1.32,8.95,3.69l51.54,51.59
		C208.9,60.09,210.22,63.3,210.22,66.62z"/>
	<path class="st0" d="M134.34,90.25c-6.95,0-12.63-5.69-12.63-12.63V6.02H16.42c-7,0-12.63,5.63-12.63,12.63v244.26
		c0,7,5.63,12.63,12.63,12.63H193.3c7,0,12.63-5.63,12.63-12.63V90.25H134.34z M142.35,234.42c0,3.7-3,6.7-6.7,6.7H73.2
		c-3.7,0-6.7-3-6.7-6.7v-2.13c0-3.7,3-6.7,6.7-6.7h62.45c3.7,0,6.7,3,6.7,6.7V234.42z M146.81,172.4l-37.21,36.35
		c-2.61,2.58-6.87,2.58-9.51,0L62.91,172.4c-2.64-2.55-2.64-6.71,0-9.29l3.06-3.01c2.66-2.6,7.01-2.55,9.62,0.11l20.3,20.68v-50.02
		c0-3.64,3-6.57,6.73-6.57h4.49c3.73,0,6.73,2.93,6.73,6.57v50.02l20.3-20.68v0c2.61-2.66,6.95-2.71,9.62-0.11l3.06,3.01
		C149.45,165.66,149.45,169.82,146.81,172.4z"/>
</g>
</svg>
