<?xml version="1.0" encoding="utf-8"?>
<!-- Generator: Adobe Illustrator 24.0.2, SVG Export Plug-In . SVG Version: 6.00 Build 0)  -->
<svg version="1.1" id="Capa_1" xmlns="http://www.w3.org/2000/svg" xmlns:xlink="http://www.w3.org/1999/xlink" x="0px" y="0px"
	 viewBox="0 0 50 50" style="enable-background:new 0 0 50 50;" xml:space="preserve">
<style type="text/css">
	.st0{clip-path:url(#SVGID_2_);fill:#FFFFFF;}
	.st1{clip-path:url(#SVGID_2_);fill:#2B3D42;}
</style>
<g>
	<defs>
		<rect id="SVGID_1_" width="50" height="50"/>
	</defs>
	<clipPath id="SVGID_2_">
		<use xlink:href="#SVGID_1_"  style="overflow:visible;"/>
	</clipPath>
	<path class="st0" d="M50,25c0,13.81-11.19,25-25,25C11.19,50,0,38.81,0,25S11.19,0,25,0C38.81,0,50,11.19,50,25"/>
	<path class="st1" d="M40.79,24.75C40.79,24.75,40.79,24.75,40.79,24.75l-4.66-3.84V13.2c0-0.37-0.3-0.67-0.67-0.67h-3.12
		c-0.37,0-0.67,0.3-0.67,0.67v4.04l-4.99-4.1c-0.99-0.81-2.41-0.81-3.4,0L9.21,24.75c-0.28,0.24-0.32,0.66-0.09,0.94v0l1.42,1.73
		c0.23,0.28,0.65,0.33,0.94,0.09c0,0,0,0,0,0l2.83-2.33v2.28v1.33v7.79c0,0.49,0.4,0.89,0.89,0.89l6.24-0.02
		c0.49,0,0.89-0.4,0.89-0.89v-5.33c0-0.49,0.4-0.89,0.89-0.89h3.56c0.49,0,0.89,0.4,0.89,0.89v5.33c0,0.49,0.4,0.89,0.89,0.89h0
		l6.24,0.02c0.49,0,0.89-0.4,0.89-0.89v-7.79v-1.34v-2.28l2.83,2.33c0.29,0.24,0.71,0.2,0.94-0.09c0,0,0,0,0,0l1.42-1.73
		C41.12,25.4,41.08,24.98,40.79,24.75"/>
</g>
</svg>
