<?xml version="1.0" encoding="utf-8"?>
<!-- Generator: Adobe Illustrator 23.0.2, SVG Export Plug-In . SVG Version: 6.00 Build 0)  -->
<svg version="1.1" id="Capa_1" xmlns="http://www.w3.org/2000/svg" xmlns:xlink="http://www.w3.org/1999/xlink" x="0px" y="0px"
	 viewBox="0 0 125.53 128.11" style="enable-background:new 0 0 125.53 128.11;" xml:space="preserve">
<style type="text/css">
	.st0{fill:#FFFFFF;}
</style>
<g>
	<g>
		<circle cx="61.76" cy="63.06" r="57"/>
	</g>
	<g>
		<g>
			
				<rect x="26.02" y="76.63" transform="matrix(0.7071 -0.7071 0.7071 0.7071 -43.7703 54.0687)" class="st0" width="34.72" height="6.49"/>
		</g>
		<path class="st0" d="M71.22,77.5c-6.56,0-13.11-2.5-18.1-7.49c-9.98-9.98-9.98-26.23,0-36.21c9.98-9.98,26.23-9.98,36.21,0
			c9.98,9.98,9.98,26.23,0,36.21l0,0C84.33,75,77.78,77.5,71.22,77.5z M71.22,31.56c-5.43,0-10.54,2.12-14.38,5.96
			c-7.93,7.93-7.93,20.84,0,28.77c7.93,7.93,20.84,7.93,28.77,0c7.93-7.93,7.93-20.84,0-28.77C81.76,33.68,76.65,31.56,71.22,31.56z
			"/>
		<g>
			<rect x="68.58" y="40.47" class="st0" width="5.28" height="22.88"/>
			
				<rect x="68.58" y="40.47" transform="matrix(6.123234e-17 -1 1 6.123234e-17 19.3127 123.1272)" class="st0" width="5.28" height="22.88"/>
		</g>
	</g>
</g>
</svg>
